<svg width="411" height="282" viewBox="0 0 411 282" fill="none" xmlns="http://www.w3.org/2000/svg">
<g clip-path="url(#clip0)">
<path d="M134.864 0H0V88.2765L72.9999 88L99.6015 109.281V88.2765H134.864V0Z" fill="#B2E3FF"/>
</g>
<path d="M87.5 88H83H77.5H73L99.6016 109.281V88H94.5H87.5Z" fill="#B2E3FF"/>
<path d="M376.419 237.571H376.919V237.071V86.3184C376.919 80.5194 372.218 75.8184 366.419 75.8184H154.221C148.422 75.8184 143.721 80.5194 143.721 86.3184V237.071V237.571H144.221H376.419Z" fill="#1F1F1F" stroke="#727272"/>
<path d="M109.773 236.795C109.773 236.243 110.221 235.795 110.773 235.795H409.866C410.418 235.795 410.866 236.243 410.866 236.795V249.829H109.773V236.795Z" fill="#C4C4C4"/>
<path d="M109.773 249.829H410.866V249.932C410.866 252.693 408.627 254.932 405.866 254.932H114.773C112.012 254.932 109.773 252.693 109.773 249.932V249.829Z" fill="#727272"/>
<path d="M234.804 235.795H285.836V237.174C285.836 239.935 283.598 242.174 280.836 242.174H239.804C237.042 242.174 234.804 239.935 234.804 237.174V235.795Z" fill="#727272"/>
<rect x="162.081" y="95.4551" width="196.475" height="123.754" rx="1" fill="#B2E3FF"/>
<rect x="173.565" y="106.938" width="172.235" height="99.5135" rx="2" fill="#1F1F1F"/>
<path d="M174.841 124.799H344.524V203.176C344.524 204.28 343.629 205.176 342.524 205.176H176.841C175.736 205.176 174.841 204.28 174.841 203.176V124.799Z" fill="white"/>
<rect x="186.321" y="140.108" width="53.5842" height="3.82744" rx="1.91372" fill="#BBBDBF"/>
<rect x="186.321" y="151.591" width="112.272" height="3.82744" rx="1.91372" fill="#BBBDBF"/>
<rect x="186.321" y="163.074" width="112.272" height="3.82744" rx="1.91372" fill="#BBBDBF"/>
<rect x="186.321" y="174.556" width="112.272" height="3.82744" rx="1.91372" fill="#BBBDBF"/>
<rect x="186.321" y="186.039" width="80.3763" height="3.82744" rx="1.91372" fill="#BBBDBF"/>
<path d="M191.386 119.695H187.313V112.408H191.386V113.214H188.232V115.49H191.202V116.286H188.232V118.889H191.386V119.695Z" fill="white"/>
<path d="M198.991 114.123C199.611 114.123 200.073 114.283 200.379 114.602C200.686 114.915 200.839 115.426 200.839 116.133V119.695H199.951V116.174C199.951 115.31 199.58 114.878 198.838 114.878C198.308 114.878 197.927 115.031 197.695 115.337C197.471 115.643 197.358 116.089 197.358 116.674V119.695H196.47V116.174C196.47 115.31 196.096 114.878 195.348 114.878C194.797 114.878 194.415 115.048 194.205 115.388C193.994 115.728 193.888 116.218 193.888 116.858V119.695H192.99V114.225H193.715L193.847 114.97H193.898C194.068 114.684 194.296 114.473 194.582 114.337C194.875 114.194 195.184 114.123 195.511 114.123C196.368 114.123 196.926 114.429 197.185 115.041H197.236C197.42 114.728 197.668 114.497 197.981 114.347C198.301 114.198 198.638 114.123 198.991 114.123Z" fill="white"/>
<path d="M204.728 114.133C205.395 114.133 205.888 114.279 206.208 114.572C206.528 114.864 206.688 115.33 206.688 115.97V119.695H206.035L205.861 118.92H205.82C205.582 119.219 205.33 119.44 205.065 119.583C204.806 119.726 204.446 119.797 203.983 119.797C203.486 119.797 203.075 119.668 202.748 119.41C202.422 119.144 202.258 118.733 202.258 118.175C202.258 117.63 202.473 117.212 202.901 116.919C203.33 116.62 203.99 116.457 204.881 116.429L205.81 116.399V116.072C205.81 115.616 205.711 115.3 205.514 115.123C205.317 114.946 205.038 114.858 204.677 114.858C204.391 114.858 204.119 114.902 203.861 114.99C203.602 115.072 203.361 115.167 203.136 115.276L202.86 114.602C203.099 114.473 203.381 114.364 203.708 114.276C204.034 114.181 204.374 114.133 204.728 114.133ZM205.8 117.021L204.994 117.052C204.313 117.079 203.84 117.188 203.575 117.379C203.316 117.569 203.187 117.838 203.187 118.185C203.187 118.491 203.279 118.716 203.463 118.858C203.653 119.001 203.895 119.073 204.187 119.073C204.65 119.073 205.034 118.947 205.341 118.695C205.647 118.437 205.8 118.042 205.8 117.511V117.021Z" fill="white"/>
<path d="M208.964 112.173C209.1 112.173 209.22 112.221 209.322 112.316C209.43 112.405 209.485 112.547 209.485 112.745C209.485 112.935 209.43 113.078 209.322 113.173C209.22 113.269 209.1 113.316 208.964 113.316C208.815 113.316 208.689 113.269 208.587 113.173C208.485 113.078 208.434 112.935 208.434 112.745C208.434 112.547 208.485 112.405 208.587 112.316C208.689 112.221 208.815 112.173 208.964 112.173ZM209.403 114.225V119.695H208.505V114.225H209.403Z" fill="white"/>
<path d="M212.162 119.695H211.264V111.938H212.162V119.695Z" fill="white"/>
<rect x="41.5098" y="121.088" width="94.3663" height="159.595" rx="10.5" fill="#1F1F1F" stroke="#727272"/>
<rect x="49.6846" y="144.609" width="78.0184" height="101.04" rx="1" fill="#B2E3FF"/>
<rect x="79.1016" y="131.82" width="19.1848" height="2.55798" rx="1.27899" fill="#727272"/>
<rect x="72.7041" y="131.82" width="2.55798" height="2.55798" rx="1.27899" fill="#727272"/>
<circle cx="88.6933" cy="262.916" r="7.81343" fill="#222222" stroke="#727272"/>
<path d="M59.4235 158.679H58.8479V154.618H57.4219V154.113H60.8432V154.618H59.4235V158.679Z" fill="black"/>
<path d="M64.1132 156.959C64.1132 157.526 63.9683 157.965 63.6784 158.276C63.3927 158.587 63.0048 158.743 62.5145 158.743C62.2118 158.743 61.9411 158.675 61.7023 158.538C61.4679 158.397 61.2824 158.195 61.146 157.931C61.0096 157.662 60.9413 157.338 60.9413 156.959C60.9413 156.392 61.0842 155.955 61.3698 155.648C61.6554 155.341 62.0434 155.187 62.5337 155.187C62.8449 155.187 63.1178 155.258 63.3522 155.398C63.591 155.535 63.7764 155.735 63.9086 155.999C64.045 156.259 64.1132 156.579 64.1132 156.959ZM61.5233 156.959C61.5233 157.364 61.6022 157.685 61.7599 157.924C61.9219 158.159 62.1777 158.276 62.5273 158.276C62.8726 158.276 63.1263 158.159 63.2883 157.924C63.4503 157.685 63.5313 157.364 63.5313 156.959C63.5313 156.554 63.4503 156.236 63.2883 156.006C63.1263 155.776 62.8705 155.66 62.5209 155.66C62.1713 155.66 61.9176 155.776 61.7599 156.006C61.6022 156.236 61.5233 156.554 61.5233 156.959Z" fill="black"/>
<path d="M65.0499 155.596C65.0499 155.434 65.0883 155.321 65.165 155.258C65.2417 155.194 65.3334 155.162 65.44 155.162C65.5508 155.162 65.6446 155.194 65.7214 155.258C65.8024 155.321 65.8429 155.434 65.8429 155.596C65.8429 155.75 65.8024 155.861 65.7214 155.929C65.6446 155.997 65.5508 156.031 65.44 156.031C65.3334 156.031 65.2417 155.997 65.165 155.929C65.0883 155.861 65.0499 155.75 65.0499 155.596ZM65.0499 158.333C65.0499 158.176 65.0883 158.065 65.165 158.001C65.2417 157.937 65.3334 157.905 65.44 157.905C65.5508 157.905 65.6446 157.937 65.7214 158.001C65.8024 158.065 65.8429 158.176 65.8429 158.333C65.8429 158.487 65.8024 158.598 65.7214 158.666C65.6446 158.734 65.5508 158.768 65.44 158.768C65.3334 158.768 65.2417 158.734 65.165 158.666C65.0883 158.598 65.0499 158.487 65.0499 158.333Z" fill="black"/>
<path d="M70.4878 158.679H69.9378V155.488C69.9378 155.304 69.94 155.157 69.9442 155.046C69.9485 154.936 69.9549 154.821 69.9634 154.701C69.8952 154.769 69.8334 154.827 69.778 154.874C69.7225 154.921 69.6522 154.98 69.5669 155.053L69.0809 155.449L68.7867 155.072L70.021 154.113H70.4878V158.679Z" fill="black"/>
<path d="M74.2753 158.679H73.7254V155.488C73.7254 155.304 73.7275 155.157 73.7317 155.046C73.736 154.936 73.7424 154.821 73.7509 154.701C73.6827 154.769 73.6209 154.827 73.5655 154.874C73.5101 154.921 73.4397 154.98 73.3544 155.053L72.8684 155.449L72.5743 155.072L73.8085 154.113H74.2753V158.679Z" fill="black"/>
<path d="M78.0628 158.679H77.5129V155.488C77.5129 155.304 77.515 155.157 77.5193 155.046C77.5235 154.936 77.5299 154.821 77.5384 154.701C77.4702 154.769 77.4084 154.827 77.353 154.874C77.2976 154.921 77.2272 154.98 77.142 155.053L76.6559 155.449L76.3618 155.072L77.596 154.113H78.0628V158.679Z" fill="black"/>
<path d="M79.8359 157.214V156.716H81.3835V157.214H79.8359Z" fill="black"/>
<path d="M85.0943 158.679H82.0759V158.212L83.2717 157.003C83.5019 156.773 83.6959 156.568 83.8537 156.389C84.0114 156.21 84.1308 156.036 84.2118 155.865C84.2928 155.69 84.3333 155.501 84.3333 155.296C84.3333 155.044 84.2587 154.855 84.1095 154.727C83.9602 154.595 83.7663 154.528 83.5275 154.528C83.3058 154.528 83.1097 154.567 82.9392 154.644C82.7729 154.72 82.6024 154.827 82.4276 154.963L82.127 154.586C82.3061 154.437 82.5107 154.311 82.7409 154.209C82.9754 154.102 83.2376 154.049 83.5275 154.049C83.9538 154.049 84.2906 154.158 84.5379 154.375C84.7852 154.588 84.9088 154.884 84.9088 155.264C84.9088 155.503 84.8598 155.726 84.7617 155.935C84.6637 156.144 84.5273 156.351 84.3525 156.556C84.1777 156.756 83.973 156.971 83.7385 157.202L82.7857 158.142V158.167H85.0943V158.679Z" fill="black"/>
<path d="M88.8818 158.679H85.8634V158.212L87.0592 157.003C87.2894 156.773 87.4834 156.568 87.6412 156.389C87.7989 156.21 87.9183 156.036 87.9993 155.865C88.0803 155.69 88.1208 155.501 88.1208 155.296C88.1208 155.044 88.0462 154.855 87.897 154.727C87.7477 154.595 87.5538 154.528 87.315 154.528C87.0933 154.528 86.8972 154.567 86.7267 154.644C86.5604 154.72 86.3899 154.827 86.2151 154.963L85.9145 154.586C86.0936 154.437 86.2982 154.311 86.5284 154.209C86.7629 154.102 87.0251 154.049 87.315 154.049C87.7414 154.049 88.0782 154.158 88.3254 154.375C88.5727 154.588 88.6963 154.884 88.6963 155.264C88.6963 155.503 88.6473 155.726 88.5492 155.935C88.4512 156.144 88.3148 156.351 88.14 156.556C87.9652 156.756 87.7605 156.971 87.5261 157.202L86.5732 158.142V158.167H88.8818V158.679Z" fill="black"/>
<path d="M92.6693 158.679H89.6509V158.212L90.8467 157.003C91.077 156.773 91.2709 156.568 91.4287 156.389C91.5864 156.21 91.7058 156.036 91.7868 155.865C91.8678 155.69 91.9083 155.501 91.9083 155.296C91.9083 155.044 91.8337 154.855 91.6845 154.727C91.5353 154.595 91.3413 154.528 91.1025 154.528C90.8808 154.528 90.6847 154.567 90.5142 154.644C90.3479 154.72 90.1774 154.827 90.0026 154.963L89.702 154.586C89.8811 154.437 90.0857 154.311 90.316 154.209C90.5504 154.102 90.8126 154.049 91.1025 154.049C91.5289 154.049 91.8657 154.158 92.1129 154.375C92.3602 154.588 92.4838 154.884 92.4838 155.264C92.4838 155.503 92.4348 155.726 92.3368 155.935C92.2387 156.144 92.1023 156.351 91.9275 156.556C91.7527 156.756 91.548 156.971 91.3136 157.202L90.3607 158.142V158.167H92.6693V158.679Z" fill="black"/>
<path d="M93.3872 157.214V156.716H94.9348V157.214H93.3872Z" fill="black"/>
<path d="M98.6648 156.389C98.6648 156.88 98.6136 157.302 98.5113 157.656C98.409 158.005 98.247 158.274 98.0253 158.461C97.8036 158.649 97.5094 158.743 97.1428 158.743C96.6269 158.743 96.2453 158.536 95.9981 158.122C95.7551 157.705 95.6336 157.127 95.6336 156.389C95.6336 155.895 95.6826 155.473 95.7806 155.123C95.883 154.774 96.045 154.507 96.2667 154.324C96.4883 154.136 96.7804 154.042 97.1428 154.042C97.6544 154.042 98.0359 154.249 98.2875 154.663C98.539 155.072 98.6648 155.648 98.6648 156.389ZM96.1963 156.389C96.1963 157.016 96.2667 157.485 96.4073 157.796C96.5523 158.108 96.7974 158.263 97.1428 158.263C97.4838 158.263 97.7268 158.11 97.8718 157.803C98.021 157.491 98.0956 157.02 98.0956 156.389C98.0956 155.767 98.021 155.3 97.8718 154.989C97.7268 154.678 97.4838 154.522 97.1428 154.522C96.7974 154.522 96.5523 154.678 96.4073 154.989C96.2667 155.3 96.1963 155.767 96.1963 156.389Z" fill="black"/>
<path d="M102.452 156.389C102.452 156.88 102.401 157.302 102.299 157.656C102.196 158.005 102.034 158.274 101.813 158.461C101.591 158.649 101.297 158.743 100.93 158.743C100.414 158.743 100.033 158.536 99.7856 158.122C99.5426 157.705 99.4211 157.127 99.4211 156.389C99.4211 155.895 99.4701 155.473 99.5681 155.123C99.6705 154.774 99.8325 154.507 100.054 154.324C100.276 154.136 100.568 154.042 100.93 154.042C101.442 154.042 101.823 154.249 102.075 154.663C102.326 155.072 102.452 155.648 102.452 156.389ZM99.9838 156.389C99.9838 157.016 100.054 157.485 100.195 157.796C100.34 158.108 100.585 158.263 100.93 158.263C101.271 158.263 101.514 158.11 101.659 157.803C101.809 157.491 101.883 157.02 101.883 156.389C101.883 155.767 101.809 155.3 101.659 154.989C101.514 154.678 101.271 154.522 100.93 154.522C100.585 154.522 100.34 154.678 100.195 154.989C100.054 155.3 99.9838 155.767 99.9838 156.389Z" fill="black"/>
<path d="M106.24 156.389C106.24 156.88 106.189 157.302 106.086 157.656C105.984 158.005 105.822 158.274 105.6 158.461C105.379 158.649 105.084 158.743 104.718 158.743C104.202 158.743 103.82 158.536 103.573 158.122C103.33 157.705 103.209 157.127 103.209 156.389C103.209 155.895 103.258 155.473 103.356 155.123C103.458 154.774 103.62 154.507 103.842 154.324C104.063 154.136 104.355 154.042 104.718 154.042C105.229 154.042 105.611 154.249 105.862 154.663C106.114 155.072 106.24 155.648 106.24 156.389ZM103.771 156.389C103.771 157.016 103.842 157.485 103.982 157.796C104.127 158.108 104.372 158.263 104.718 158.263C105.059 158.263 105.302 158.11 105.447 157.803C105.596 157.491 105.671 157.02 105.671 156.389C105.671 155.767 105.596 155.3 105.447 154.989C105.302 154.678 105.059 154.522 104.718 154.522C104.372 154.522 104.127 154.678 103.982 154.989C103.842 155.3 103.771 155.767 103.771 156.389Z" fill="black"/>
<path d="M110.027 156.389C110.027 156.88 109.976 157.302 109.874 157.656C109.771 158.005 109.609 158.274 109.388 158.461C109.166 158.649 108.872 158.743 108.505 158.743C107.989 158.743 107.608 158.536 107.361 158.122C107.118 157.705 106.996 157.127 106.996 156.389C106.996 155.895 107.045 155.473 107.143 155.123C107.245 154.774 107.407 154.507 107.629 154.324C107.851 154.136 108.143 154.042 108.505 154.042C109.017 154.042 109.398 154.249 109.65 154.663C109.902 155.072 110.027 155.648 110.027 156.389ZM107.559 156.389C107.559 157.016 107.629 157.485 107.77 157.796C107.915 158.108 108.16 158.263 108.505 158.263C108.846 158.263 109.089 158.11 109.234 157.803C109.384 157.491 109.458 157.02 109.458 156.389C109.458 155.767 109.384 155.3 109.234 154.989C109.089 154.678 108.846 154.522 108.505 154.522C108.16 154.522 107.915 154.678 107.77 154.989C107.629 155.3 107.559 155.767 107.559 156.389Z" fill="black"/>
<rect x="57.3574" y="165.074" width="62.6705" height="48.6016" rx="2" fill="white"/>
<rect x="63.7529" y="172.748" width="19.1848" height="2.55798" rx="1.27899" fill="#BBBDBF"/>
<rect x="63.7529" y="180.422" width="49.8806" height="2.55798" rx="1.27899" fill="#BBBDBF"/>
<rect x="63.7529" y="188.095" width="49.8806" height="2.55798" rx="1.27899" fill="#BBBDBF"/>
<rect x="63.7529" y="195.77" width="49.8806" height="2.55798" rx="1.27899" fill="#BBBDBF"/>
<rect x="63.7529" y="203.443" width="31.9747" height="2.55798" rx="1.27899" fill="#BBBDBF"/>
<defs>
<clipPath id="clip0">
<rect width="135" height="88" rx="5" fill="white"/>
</clipPath>
</defs>
</svg>
