<svg width="358" height="304" viewBox="0 0 358 304" fill="none" xmlns="http://www.w3.org/2000/svg">
<g clip-path="url(#clip0)">
<rect x="0.5" y="32.5" width="197" height="231" rx="14.5" fill="white"/>
<rect y="80" width="262" height="2" fill="#EEEEEE"/>
<rect y="32" width="262" height="48" fill="#BBBDBF"/>
</g>
<rect x="0.5" y="32.5" width="197" height="231" rx="14.5" stroke="#BBBDBF"/>
<g clip-path="url(#clip1)">
<rect x="160.5" y="32.5" width="197" height="231" rx="14.5" fill="white"/>
<rect x="160" y="80" width="262" height="2" fill="#EEEEEE"/>
<rect x="160" y="32" width="262" height="48" fill="#BBBDBF"/>
</g>
<rect x="160.5" y="32.5" width="197" height="231" rx="14.5" stroke="#BBBDBF"/>
<g filter="url(#filter0_d)">
<rect x="48" width="262" height="296" rx="15" fill="white"/>
<rect x="48" y="48" width="262" height="2" fill="#EEEEEE"/>
<path d="M97.4109 199.718V205.724C97.4109 206.365 97.2809 206.946 97.0209 207.466C96.7609 207.977 96.3622 208.385 95.8249 208.688C95.2962 208.983 94.6202 209.13 93.7969 209.13C92.6442 209.13 91.7646 208.818 91.1579 208.194C90.5599 207.561 90.2609 206.729 90.2609 205.698V199.718H91.4309V205.737C91.4309 206.491 91.6302 207.076 92.0289 207.492C92.4362 207.908 93.0472 208.116 93.8619 208.116C94.7026 208.116 95.3092 207.895 95.6819 207.453C96.0632 207.002 96.2539 206.426 96.2539 205.724V199.718H97.4109ZM103.594 201.902C104.426 201.902 105.055 202.106 105.479 202.513C105.904 202.912 106.116 203.562 106.116 204.463V209H104.985V204.541C104.985 203.423 104.465 202.864 103.425 202.864C102.654 202.864 102.121 203.081 101.826 203.514C101.532 203.947 101.384 204.571 101.384 205.386V209H100.24V202.032H101.163L101.332 202.981H101.397C101.623 202.617 101.935 202.348 102.333 202.175C102.732 201.993 103.152 201.902 103.594 201.902ZM109.956 209H108.812V199.12H109.956V209ZM113.285 199.419C113.458 199.419 113.61 199.48 113.74 199.601C113.878 199.714 113.948 199.896 113.948 200.147C113.948 200.39 113.878 200.572 113.74 200.693C113.61 200.814 113.458 200.875 113.285 200.875C113.094 200.875 112.934 200.814 112.804 200.693C112.674 200.572 112.609 200.39 112.609 200.147C112.609 199.896 112.674 199.714 112.804 199.601C112.934 199.48 113.094 199.419 113.285 199.419ZM113.844 202.032V209H112.7V202.032H113.844ZM124.231 201.902C125.019 201.902 125.609 202.106 125.999 202.513C126.389 202.912 126.584 203.562 126.584 204.463V209H125.453V204.515C125.453 203.414 124.98 202.864 124.036 202.864C123.36 202.864 122.874 203.059 122.58 203.449C122.294 203.839 122.151 204.407 122.151 205.152V209H121.02V204.515C121.02 203.414 120.543 202.864 119.59 202.864C118.888 202.864 118.402 203.081 118.134 203.514C117.865 203.947 117.731 204.571 117.731 205.386V209H116.587V202.032H117.51L117.679 202.981H117.744C117.96 202.617 118.251 202.348 118.615 202.175C118.987 201.993 119.382 201.902 119.798 201.902C120.89 201.902 121.6 202.292 121.93 203.072H121.995C122.229 202.673 122.545 202.379 122.944 202.188C123.351 201.997 123.78 201.902 124.231 201.902ZM129.857 199.419C130.03 199.419 130.182 199.48 130.312 199.601C130.451 199.714 130.52 199.896 130.52 200.147C130.52 200.39 130.451 200.572 130.312 200.693C130.182 200.814 130.03 200.875 129.857 200.875C129.666 200.875 129.506 200.814 129.376 200.693C129.246 200.572 129.181 200.39 129.181 200.147C129.181 199.896 129.246 199.714 129.376 199.601C129.506 199.48 129.666 199.419 129.857 199.419ZM130.416 202.032V209H129.272V202.032H130.416ZM135.486 208.194C135.66 208.194 135.837 208.181 136.019 208.155C136.201 208.12 136.349 208.086 136.461 208.051V208.922C136.34 208.983 136.167 209.03 135.941 209.065C135.716 209.108 135.499 209.13 135.291 209.13C134.927 209.13 134.589 209.069 134.277 208.948C133.974 208.818 133.727 208.597 133.536 208.285C133.346 207.973 133.25 207.535 133.25 206.972V202.916H132.262V202.37L133.263 201.915L133.718 200.433H134.394V202.032H136.409V202.916H134.394V206.946C134.394 207.371 134.494 207.687 134.693 207.895C134.901 208.094 135.166 208.194 135.486 208.194ZM141.083 201.902C141.681 201.902 142.193 202.032 142.617 202.292C143.051 202.552 143.38 202.92 143.605 203.397C143.839 203.865 143.956 204.415 143.956 205.048V205.737H139.185C139.203 206.526 139.402 207.128 139.783 207.544C140.173 207.951 140.715 208.155 141.408 208.155C141.85 208.155 142.24 208.116 142.578 208.038C142.925 207.951 143.28 207.83 143.644 207.674V208.675C143.289 208.831 142.938 208.944 142.591 209.013C142.245 209.091 141.833 209.13 141.356 209.13C140.698 209.13 140.113 208.996 139.601 208.727C139.099 208.458 138.704 208.06 138.418 207.531C138.141 206.994 138.002 206.339 138.002 205.568C138.002 204.805 138.128 204.151 138.379 203.605C138.639 203.059 138.999 202.639 139.458 202.344C139.926 202.049 140.468 201.902 141.083 201.902ZM141.07 202.838C140.524 202.838 140.091 203.016 139.77 203.371C139.458 203.718 139.272 204.203 139.211 204.827H142.76C142.752 204.238 142.613 203.761 142.344 203.397C142.076 203.024 141.651 202.838 141.07 202.838ZM148.736 209.13C147.869 209.13 147.176 208.831 146.656 208.233C146.136 207.626 145.876 206.725 145.876 205.529C145.876 204.333 146.136 203.432 146.656 202.825C147.184 202.21 147.882 201.902 148.749 201.902C149.286 201.902 149.724 202.002 150.062 202.201C150.408 202.4 150.69 202.643 150.907 202.929H150.985C150.976 202.816 150.959 202.652 150.933 202.435C150.915 202.21 150.907 202.032 150.907 201.902V199.12H152.051V209H151.128L150.959 208.064H150.907C150.699 208.359 150.421 208.61 150.075 208.818C149.728 209.026 149.282 209.13 148.736 209.13ZM148.918 208.181C149.654 208.181 150.17 207.982 150.465 207.583C150.768 207.176 150.92 206.565 150.92 205.75V205.542C150.92 204.675 150.777 204.012 150.491 203.553C150.205 203.085 149.676 202.851 148.905 202.851C148.289 202.851 147.826 203.098 147.514 203.592C147.21 204.077 147.059 204.732 147.059 205.555C147.059 206.387 147.21 207.033 147.514 207.492C147.826 207.951 148.294 208.181 148.918 208.181ZM161.403 201.902C162.001 201.902 162.513 202.032 162.937 202.292C163.371 202.552 163.7 202.92 163.925 203.397C164.159 203.865 164.276 204.415 164.276 205.048V205.737H159.505C159.523 206.526 159.722 207.128 160.103 207.544C160.493 207.951 161.035 208.155 161.728 208.155C162.17 208.155 162.56 208.116 162.898 208.038C163.245 207.951 163.6 207.83 163.964 207.674V208.675C163.609 208.831 163.258 208.944 162.911 209.013C162.565 209.091 162.153 209.13 161.676 209.13C161.018 209.13 160.433 208.996 159.921 208.727C159.419 208.458 159.024 208.06 158.738 207.531C158.461 206.994 158.322 206.339 158.322 205.568C158.322 204.805 158.448 204.151 158.699 203.605C158.959 203.059 159.319 202.639 159.778 202.344C160.246 202.049 160.788 201.902 161.403 201.902ZM161.39 202.838C160.844 202.838 160.411 203.016 160.09 203.371C159.778 203.718 159.592 204.203 159.531 204.827H163.08C163.072 204.238 162.933 203.761 162.664 203.397C162.396 203.024 161.971 202.838 161.39 202.838ZM174.23 201.902C175.018 201.902 175.608 202.106 175.998 202.513C176.388 202.912 176.583 203.562 176.583 204.463V209H175.452V204.515C175.452 203.414 174.979 202.864 174.035 202.864C173.359 202.864 172.873 203.059 172.579 203.449C172.293 203.839 172.15 204.407 172.15 205.152V209H171.019V204.515C171.019 203.414 170.542 202.864 169.589 202.864C168.887 202.864 168.401 203.081 168.133 203.514C167.864 203.947 167.73 204.571 167.73 205.386V209H166.586V202.032H167.509L167.678 202.981H167.743C167.959 202.617 168.25 202.348 168.614 202.175C168.986 201.993 169.381 201.902 169.797 201.902C170.889 201.902 171.599 202.292 171.929 203.072H171.994C172.228 202.673 172.544 202.379 172.943 202.188C173.35 201.997 173.779 201.902 174.23 201.902ZM181.91 201.915C182.759 201.915 183.388 202.101 183.795 202.474C184.202 202.847 184.406 203.44 184.406 204.255V209H183.574L183.353 208.012H183.301C182.998 208.393 182.677 208.675 182.339 208.857C182.01 209.039 181.55 209.13 180.961 209.13C180.328 209.13 179.804 208.965 179.388 208.636C178.972 208.298 178.764 207.774 178.764 207.063C178.764 206.37 179.037 205.837 179.583 205.464C180.129 205.083 180.97 204.875 182.105 204.84L183.288 204.801V204.385C183.288 203.804 183.162 203.401 182.911 203.176C182.66 202.951 182.304 202.838 181.845 202.838C181.481 202.838 181.134 202.894 180.805 203.007C180.476 203.111 180.168 203.232 179.882 203.371L179.531 202.513C179.834 202.348 180.194 202.21 180.61 202.097C181.026 201.976 181.459 201.915 181.91 201.915ZM183.275 205.594L182.248 205.633C181.381 205.668 180.779 205.806 180.441 206.049C180.112 206.292 179.947 206.634 179.947 207.076C179.947 207.466 180.064 207.752 180.298 207.934C180.541 208.116 180.848 208.207 181.221 208.207C181.81 208.207 182.3 208.047 182.69 207.726C183.08 207.397 183.275 206.894 183.275 206.218V205.594ZM187.679 199.419C187.852 199.419 188.004 199.48 188.134 199.601C188.272 199.714 188.342 199.896 188.342 200.147C188.342 200.39 188.272 200.572 188.134 200.693C188.004 200.814 187.852 200.875 187.679 200.875C187.488 200.875 187.328 200.814 187.198 200.693C187.068 200.572 187.003 200.39 187.003 200.147C187.003 199.896 187.068 199.714 187.198 199.601C187.328 199.48 187.488 199.419 187.679 199.419ZM188.238 202.032V209H187.094V202.032H188.238ZM192.125 209H190.981V199.12H192.125V209ZM199.405 207.076C199.405 207.752 199.154 208.263 198.651 208.61C198.149 208.957 197.473 209.13 196.623 209.13C196.138 209.13 195.718 209.091 195.362 209.013C195.016 208.935 194.708 208.827 194.439 208.688V207.648C194.717 207.787 195.05 207.917 195.44 208.038C195.839 208.151 196.242 208.207 196.649 208.207C197.23 208.207 197.65 208.116 197.91 207.934C198.17 207.743 198.3 207.492 198.3 207.18C198.3 207.007 198.253 206.851 198.157 206.712C198.062 206.573 197.889 206.435 197.637 206.296C197.395 206.157 197.044 206.001 196.584 205.828C196.134 205.655 195.748 205.481 195.427 205.308C195.107 205.135 194.86 204.927 194.686 204.684C194.513 204.441 194.426 204.129 194.426 203.748C194.426 203.159 194.665 202.704 195.141 202.383C195.627 202.062 196.259 201.902 197.039 201.902C197.464 201.902 197.858 201.945 198.222 202.032C198.595 202.11 198.942 202.223 199.262 202.37L198.872 203.28C198.578 203.159 198.27 203.055 197.949 202.968C197.629 202.881 197.299 202.838 196.961 202.838C196.493 202.838 196.134 202.916 195.882 203.072C195.64 203.219 195.518 203.423 195.518 203.683C195.518 203.874 195.575 204.038 195.687 204.177C195.8 204.307 195.986 204.437 196.246 204.567C196.515 204.688 196.87 204.836 197.312 205.009C197.754 205.174 198.131 205.343 198.443 205.516C198.755 205.689 198.994 205.902 199.158 206.153C199.323 206.396 199.405 206.703 199.405 207.076ZM208.176 201.915C209.026 201.915 209.654 202.101 210.061 202.474C210.469 202.847 210.672 203.44 210.672 204.255V209H209.84L209.619 208.012H209.567C209.264 208.393 208.943 208.675 208.605 208.857C208.276 209.039 207.817 209.13 207.227 209.13C206.595 209.13 206.07 208.965 205.654 208.636C205.238 208.298 205.03 207.774 205.03 207.063C205.03 206.37 205.303 205.837 205.849 205.464C206.395 205.083 207.236 204.875 208.371 204.84L209.554 204.801V204.385C209.554 203.804 209.429 203.401 209.177 203.176C208.926 202.951 208.571 202.838 208.111 202.838C207.747 202.838 207.401 202.894 207.071 203.007C206.742 203.111 206.434 203.232 206.148 203.371L205.797 202.513C206.101 202.348 206.46 202.21 206.876 202.097C207.292 201.976 207.726 201.915 208.176 201.915ZM209.541 205.594L208.514 205.633C207.648 205.668 207.045 205.806 206.707 206.049C206.378 206.292 206.213 206.634 206.213 207.076C206.213 207.466 206.33 207.752 206.564 207.934C206.807 208.116 207.115 208.207 207.487 208.207C208.077 208.207 208.566 208.047 208.956 207.726C209.346 207.397 209.541 206.894 209.541 206.218V205.594ZM216.714 201.902C217.546 201.902 218.175 202.106 218.599 202.513C219.024 202.912 219.236 203.562 219.236 204.463V209H218.105V204.541C218.105 203.423 217.585 202.864 216.545 202.864C215.774 202.864 215.241 203.081 214.946 203.514C214.652 203.947 214.504 204.571 214.504 205.386V209H213.36V202.032H214.283L214.452 202.981H214.517C214.743 202.617 215.055 202.348 215.453 202.175C215.852 201.993 216.272 201.902 216.714 201.902ZM224.402 209.13C223.535 209.13 222.842 208.831 222.322 208.233C221.802 207.626 221.542 206.725 221.542 205.529C221.542 204.333 221.802 203.432 222.322 202.825C222.851 202.21 223.548 201.902 224.415 201.902C224.952 201.902 225.39 202.002 225.728 202.201C226.075 202.4 226.356 202.643 226.573 202.929H226.651C226.642 202.816 226.625 202.652 226.599 202.435C226.582 202.21 226.573 202.032 226.573 201.902V199.12H227.717V209H226.794L226.625 208.064H226.573C226.365 208.359 226.088 208.61 225.741 208.818C225.394 209.026 224.948 209.13 224.402 209.13ZM224.584 208.181C225.321 208.181 225.836 207.982 226.131 207.583C226.434 207.176 226.586 206.565 226.586 205.75V205.542C226.586 204.675 226.443 204.012 226.157 203.553C225.871 203.085 225.342 202.851 224.571 202.851C223.956 202.851 223.492 203.098 223.18 203.592C222.877 204.077 222.725 204.732 222.725 205.555C222.725 206.387 222.877 207.033 223.18 207.492C223.492 207.951 223.96 208.181 224.584 208.181ZM236.705 208.194C236.879 208.194 237.056 208.181 237.238 208.155C237.42 208.12 237.568 208.086 237.68 208.051V208.922C237.559 208.983 237.386 209.03 237.16 209.065C236.935 209.108 236.718 209.13 236.51 209.13C236.146 209.13 235.808 209.069 235.496 208.948C235.193 208.818 234.946 208.597 234.755 208.285C234.565 207.973 234.469 207.535 234.469 206.972V202.916H233.481V202.37L234.482 201.915L234.937 200.433H235.613V202.032H237.628V202.916H235.613V206.946C235.613 207.371 235.713 207.687 235.912 207.895C236.12 208.094 236.385 208.194 236.705 208.194ZM242.303 201.902C242.901 201.902 243.412 202.032 243.837 202.292C244.27 202.552 244.599 202.92 244.825 203.397C245.059 203.865 245.176 204.415 245.176 205.048V205.737H240.405C240.422 206.526 240.621 207.128 241.003 207.544C241.393 207.951 241.934 208.155 242.628 208.155C243.07 208.155 243.46 208.116 243.798 208.038C244.144 207.951 244.5 207.83 244.864 207.674V208.675C244.508 208.831 244.157 208.944 243.811 209.013C243.464 209.091 243.052 209.13 242.576 209.13C241.917 209.13 241.332 208.996 240.821 208.727C240.318 208.458 239.924 208.06 239.638 207.531C239.36 206.994 239.222 206.339 239.222 205.568C239.222 204.805 239.347 204.151 239.599 203.605C239.859 203.059 240.218 202.639 240.678 202.344C241.146 202.049 241.687 201.902 242.303 201.902ZM242.29 202.838C241.744 202.838 241.31 203.016 240.99 203.371C240.678 203.718 240.491 204.203 240.431 204.827H243.98C243.971 204.238 243.832 203.761 243.564 203.397C243.295 203.024 242.87 202.838 242.29 202.838ZM248.882 205.438L246.477 202.032H247.777L249.571 204.658L251.352 202.032H252.639L250.234 205.438L252.769 209H251.469L249.571 206.218L247.647 209H246.36L248.882 205.438ZM256.975 208.194C257.148 208.194 257.326 208.181 257.508 208.155C257.69 208.12 257.837 208.086 257.95 208.051V208.922C257.828 208.983 257.655 209.03 257.43 209.065C257.204 209.108 256.988 209.13 256.78 209.13C256.416 209.13 256.078 209.069 255.766 208.948C255.462 208.818 255.215 208.597 255.025 208.285C254.834 207.973 254.739 207.535 254.739 206.972V202.916H253.751V202.37L254.752 201.915L255.207 200.433H255.883V202.032H257.898V202.916H255.883V206.946C255.883 207.371 255.982 207.687 256.182 207.895C256.39 208.094 256.654 208.194 256.975 208.194ZM264.418 207.076C264.418 207.752 264.166 208.263 263.664 208.61C263.161 208.957 262.485 209.13 261.636 209.13C261.15 209.13 260.73 209.091 260.375 209.013C260.028 208.935 259.72 208.827 259.452 208.688V207.648C259.729 207.787 260.063 207.917 260.453 208.038C260.851 208.151 261.254 208.207 261.662 208.207C262.242 208.207 262.663 208.116 262.923 207.934C263.183 207.743 263.313 207.492 263.313 207.18C263.313 207.007 263.265 206.851 263.17 206.712C263.074 206.573 262.901 206.435 262.65 206.296C262.407 206.157 262.056 206.001 261.597 205.828C261.146 205.655 260.76 205.481 260.44 205.308C260.119 205.135 259.872 204.927 259.699 204.684C259.525 204.441 259.439 204.129 259.439 203.748C259.439 203.159 259.677 202.704 260.154 202.383C260.639 202.062 261.272 201.902 262.052 201.902C262.476 201.902 262.871 201.945 263.235 202.032C263.607 202.11 263.954 202.223 264.275 202.37L263.885 203.28C263.59 203.159 263.282 203.055 262.962 202.968C262.641 202.881 262.312 202.838 261.974 202.838C261.506 202.838 261.146 202.916 260.895 203.072C260.652 203.219 260.531 203.423 260.531 203.683C260.531 203.874 260.587 204.038 260.7 204.177C260.812 204.307 260.999 204.437 261.259 204.567C261.527 204.688 261.883 204.836 262.325 205.009C262.767 205.174 263.144 205.343 263.456 205.516C263.768 205.689 264.006 205.902 264.171 206.153C264.335 206.396 264.418 206.703 264.418 207.076ZM100.747 220.718H103.399C104.56 220.718 105.435 220.891 106.025 221.238C106.623 221.576 106.922 222.17 106.922 223.019C106.922 223.565 106.77 224.02 106.467 224.384C106.163 224.739 105.726 224.969 105.154 225.073V225.138C105.544 225.199 105.895 225.311 106.207 225.476C106.527 225.641 106.779 225.875 106.961 226.178C107.143 226.481 107.234 226.876 107.234 227.361C107.234 228.202 106.943 228.852 106.363 229.311C105.791 229.77 105.006 230 104.01 230H100.747V220.718ZM101.917 224.67H103.633C104.43 224.67 104.976 224.544 105.271 224.293C105.565 224.033 105.713 223.652 105.713 223.149C105.713 222.638 105.531 222.274 105.167 222.057C104.811 221.832 104.239 221.719 103.451 221.719H101.917V224.67ZM101.917 225.645V229.012H103.789C104.612 229.012 105.184 228.852 105.505 228.531C105.825 228.21 105.986 227.79 105.986 227.27C105.986 226.785 105.817 226.395 105.479 226.1C105.149 225.797 104.556 225.645 103.698 225.645H101.917ZM112.221 222.915C113.07 222.915 113.698 223.101 114.106 223.474C114.513 223.847 114.717 224.44 114.717 225.255V230H113.885L113.664 229.012H113.612C113.308 229.393 112.988 229.675 112.65 229.857C112.32 230.039 111.861 230.13 111.272 230.13C110.639 230.13 110.115 229.965 109.699 229.636C109.283 229.298 109.075 228.774 109.075 228.063C109.075 227.37 109.348 226.837 109.894 226.464C110.44 226.083 111.28 225.875 112.416 225.84L113.599 225.801V225.385C113.599 224.804 113.473 224.401 113.222 224.176C112.97 223.951 112.615 223.838 112.156 223.838C111.792 223.838 111.445 223.894 111.116 224.007C110.786 224.111 110.479 224.232 110.193 224.371L109.842 223.513C110.145 223.348 110.505 223.21 110.921 223.097C111.337 222.976 111.77 222.915 112.221 222.915ZM113.586 226.594L112.559 226.633C111.692 226.668 111.09 226.806 110.752 227.049C110.422 227.292 110.258 227.634 110.258 228.076C110.258 228.466 110.375 228.752 110.609 228.934C110.851 229.116 111.159 229.207 111.532 229.207C112.121 229.207 112.611 229.047 113.001 228.726C113.391 228.397 113.586 227.894 113.586 227.218V226.594ZM119.731 229.194C119.905 229.194 120.082 229.181 120.264 229.155C120.446 229.12 120.594 229.086 120.706 229.051V229.922C120.585 229.983 120.412 230.03 120.186 230.065C119.961 230.108 119.744 230.13 119.536 230.13C119.172 230.13 118.834 230.069 118.522 229.948C118.219 229.818 117.972 229.597 117.781 229.285C117.591 228.973 117.495 228.535 117.495 227.972V223.916H116.507V223.37L117.508 222.915L117.963 221.433H118.639V223.032H120.654V223.916H118.639V227.946C118.639 228.371 118.739 228.687 118.938 228.895C119.146 229.094 119.411 229.194 119.731 229.194ZM125.432 230.13C124.817 230.13 124.267 230.004 123.781 229.753C123.305 229.502 122.928 229.112 122.65 228.583C122.382 228.054 122.247 227.378 122.247 226.555C122.247 225.697 122.39 224.999 122.676 224.462C122.962 223.925 123.348 223.53 123.833 223.279C124.327 223.028 124.886 222.902 125.51 222.902C125.866 222.902 126.208 222.941 126.537 223.019C126.867 223.088 127.135 223.175 127.343 223.279L126.992 224.228C126.784 224.15 126.542 224.076 126.264 224.007C125.987 223.938 125.727 223.903 125.484 223.903C124.115 223.903 123.43 224.783 123.43 226.542C123.43 227.383 123.595 228.028 123.924 228.479C124.262 228.921 124.761 229.142 125.419 229.142C125.801 229.142 126.134 229.103 126.42 229.025C126.715 228.947 126.984 228.852 127.226 228.739V229.753C126.992 229.874 126.732 229.965 126.446 230.026C126.169 230.095 125.831 230.13 125.432 230.13ZM130.563 220.12V223.019C130.563 223.366 130.542 223.691 130.498 223.994H130.576C130.802 223.639 131.105 223.37 131.486 223.188C131.876 223.006 132.297 222.915 132.747 222.915C133.597 222.915 134.234 223.119 134.658 223.526C135.083 223.925 135.295 224.57 135.295 225.463V230H134.164V225.541C134.164 224.423 133.644 223.864 132.604 223.864C131.824 223.864 131.287 224.085 130.992 224.527C130.706 224.96 130.563 225.584 130.563 226.399V230H129.419V220.12H130.563ZM146.441 228.076C146.441 228.752 146.189 229.263 145.687 229.61C145.184 229.957 144.508 230.13 143.659 230.13C143.173 230.13 142.753 230.091 142.398 230.013C142.051 229.935 141.743 229.827 141.475 229.688V228.648C141.752 228.787 142.086 228.917 142.476 229.038C142.874 229.151 143.277 229.207 143.685 229.207C144.265 229.207 144.686 229.116 144.946 228.934C145.206 228.743 145.336 228.492 145.336 228.18C145.336 228.007 145.288 227.851 145.193 227.712C145.097 227.573 144.924 227.435 144.673 227.296C144.43 227.157 144.079 227.001 143.62 226.828C143.169 226.655 142.783 226.481 142.463 226.308C142.142 226.135 141.895 225.927 141.722 225.684C141.548 225.441 141.462 225.129 141.462 224.748C141.462 224.159 141.7 223.704 142.177 223.383C142.662 223.062 143.295 222.902 144.075 222.902C144.499 222.902 144.894 222.945 145.258 223.032C145.63 223.11 145.977 223.223 146.298 223.37L145.908 224.28C145.613 224.159 145.305 224.055 144.985 223.968C144.664 223.881 144.335 223.838 143.997 223.838C143.529 223.838 143.169 223.916 142.918 224.072C142.675 224.219 142.554 224.423 142.554 224.683C142.554 224.874 142.61 225.038 142.723 225.177C142.835 225.307 143.022 225.437 143.282 225.567C143.55 225.688 143.906 225.836 144.348 226.009C144.79 226.174 145.167 226.343 145.479 226.516C145.791 226.689 146.029 226.902 146.194 227.153C146.358 227.396 146.441 227.703 146.441 228.076ZM151.351 222.902C151.949 222.902 152.46 223.032 152.885 223.292C153.318 223.552 153.648 223.92 153.873 224.397C154.107 224.865 154.224 225.415 154.224 226.048V226.737H149.453C149.47 227.526 149.67 228.128 150.051 228.544C150.441 228.951 150.983 229.155 151.676 229.155C152.118 229.155 152.508 229.116 152.846 229.038C153.193 228.951 153.548 228.83 153.912 228.674V229.675C153.557 229.831 153.206 229.944 152.859 230.013C152.512 230.091 152.101 230.13 151.624 230.13C150.965 230.13 150.38 229.996 149.869 229.727C149.366 229.458 148.972 229.06 148.686 228.531C148.409 227.994 148.27 227.339 148.27 226.568C148.27 225.805 148.396 225.151 148.647 224.605C148.907 224.059 149.267 223.639 149.726 223.344C150.194 223.049 150.736 222.902 151.351 222.902ZM151.338 223.838C150.792 223.838 150.359 224.016 150.038 224.371C149.726 224.718 149.54 225.203 149.479 225.827H153.028C153.019 225.238 152.881 224.761 152.612 224.397C152.343 224.024 151.919 223.838 151.338 223.838ZM159.888 222.902C160.72 222.902 161.348 223.106 161.773 223.513C162.197 223.912 162.41 224.562 162.41 225.463V230H161.279V225.541C161.279 224.423 160.759 223.864 159.719 223.864C158.947 223.864 158.414 224.081 158.12 224.514C157.825 224.947 157.678 225.571 157.678 226.386V230H156.534V223.032H157.457L157.626 223.981H157.691C157.916 223.617 158.228 223.348 158.627 223.175C159.025 222.993 159.446 222.902 159.888 222.902ZM167.576 230.13C166.709 230.13 166.016 229.831 165.496 229.233C164.976 228.626 164.716 227.725 164.716 226.529C164.716 225.333 164.976 224.432 165.496 223.825C166.024 223.21 166.722 222.902 167.589 222.902C168.126 222.902 168.564 223.002 168.902 223.201C169.248 223.4 169.53 223.643 169.747 223.929H169.825C169.816 223.816 169.799 223.652 169.773 223.435C169.755 223.21 169.747 223.032 169.747 222.902V220.12H170.891V230H169.968L169.799 229.064H169.747C169.539 229.359 169.261 229.61 168.915 229.818C168.568 230.026 168.122 230.13 167.576 230.13ZM167.758 229.181C168.494 229.181 169.01 228.982 169.305 228.583C169.608 228.176 169.76 227.565 169.76 226.75V226.542C169.76 225.675 169.617 225.012 169.331 224.553C169.045 224.085 168.516 223.851 167.745 223.851C167.129 223.851 166.666 224.098 166.354 224.592C166.05 225.077 165.899 225.732 165.899 226.555C165.899 227.387 166.05 228.033 166.354 228.492C166.666 228.951 167.134 229.181 167.758 229.181ZM179.879 229.194C180.052 229.194 180.23 229.181 180.412 229.155C180.594 229.12 180.741 229.086 180.854 229.051V229.922C180.733 229.983 180.559 230.03 180.334 230.065C180.109 230.108 179.892 230.13 179.684 230.13C179.32 230.13 178.982 230.069 178.67 229.948C178.367 229.818 178.12 229.597 177.929 229.285C177.738 228.973 177.643 228.535 177.643 227.972V223.916H176.655V223.37L177.656 222.915L178.111 221.433H178.787V223.032H180.802V223.916H178.787V227.946C178.787 228.371 178.887 228.687 179.086 228.895C179.294 229.094 179.558 229.194 179.879 229.194ZM188.843 226.503C188.843 227.656 188.548 228.548 187.959 229.181C187.378 229.814 186.59 230.13 185.593 230.13C184.978 230.13 184.427 229.991 183.942 229.714C183.465 229.428 183.088 229.016 182.811 228.479C182.534 227.933 182.395 227.274 182.395 226.503C182.395 225.35 182.685 224.462 183.266 223.838C183.847 223.214 184.635 222.902 185.632 222.902C186.265 222.902 186.819 223.045 187.296 223.331C187.781 223.608 188.158 224.016 188.427 224.553C188.704 225.082 188.843 225.732 188.843 226.503ZM183.578 226.503C183.578 227.326 183.738 227.981 184.059 228.466C184.388 228.943 184.908 229.181 185.619 229.181C186.321 229.181 186.837 228.943 187.166 228.466C187.495 227.981 187.66 227.326 187.66 226.503C187.66 225.68 187.495 225.034 187.166 224.566C186.837 224.098 186.317 223.864 185.606 223.864C184.895 223.864 184.38 224.098 184.059 224.566C183.738 225.034 183.578 225.68 183.578 226.503ZM198.354 222.902C198.484 222.902 198.623 222.911 198.77 222.928C198.926 222.937 199.061 222.954 199.173 222.98L199.03 224.033C198.918 224.007 198.792 223.985 198.653 223.968C198.523 223.951 198.398 223.942 198.276 223.942C197.921 223.942 197.587 224.042 197.275 224.241C196.963 224.432 196.712 224.705 196.521 225.06C196.339 225.407 196.248 225.814 196.248 226.282V230H195.104V223.032H196.04L196.17 224.306H196.222C196.448 223.925 196.738 223.595 197.093 223.318C197.449 223.041 197.869 222.902 198.354 222.902ZM203.447 222.902C204.045 222.902 204.557 223.032 204.981 223.292C205.415 223.552 205.744 223.92 205.969 224.397C206.203 224.865 206.32 225.415 206.32 226.048V226.737H201.549C201.567 227.526 201.766 228.128 202.147 228.544C202.537 228.951 203.079 229.155 203.772 229.155C204.214 229.155 204.604 229.116 204.942 229.038C205.289 228.951 205.644 228.83 206.008 228.674V229.675C205.653 229.831 205.302 229.944 204.955 230.013C204.609 230.091 204.197 230.13 203.72 230.13C203.062 230.13 202.477 229.996 201.965 229.727C201.463 229.458 201.068 229.06 200.782 228.531C200.505 227.994 200.366 227.339 200.366 226.568C200.366 225.805 200.492 225.151 200.743 224.605C201.003 224.059 201.363 223.639 201.822 223.344C202.29 223.049 202.832 222.902 203.447 222.902ZM203.434 223.838C202.888 223.838 202.455 224.016 202.134 224.371C201.822 224.718 201.636 225.203 201.575 225.827H205.124C205.116 225.238 204.977 224.761 204.708 224.397C204.44 224.024 204.015 223.838 203.434 223.838ZM211.425 230.13C210.81 230.13 210.259 230.004 209.774 229.753C209.297 229.502 208.92 229.112 208.643 228.583C208.374 228.054 208.24 227.378 208.24 226.555C208.24 225.697 208.383 224.999 208.669 224.462C208.955 223.925 209.341 223.53 209.826 223.279C210.32 223.028 210.879 222.902 211.503 222.902C211.858 222.902 212.201 222.941 212.53 223.019C212.859 223.088 213.128 223.175 213.336 223.279L212.985 224.228C212.777 224.15 212.534 224.076 212.257 224.007C211.98 223.938 211.72 223.903 211.477 223.903C210.108 223.903 209.423 224.783 209.423 226.542C209.423 227.383 209.588 228.028 209.917 228.479C210.255 228.921 210.753 229.142 211.412 229.142C211.793 229.142 212.127 229.103 212.413 229.025C212.708 228.947 212.976 228.852 213.219 228.739V229.753C212.985 229.874 212.725 229.965 212.439 230.026C212.162 230.095 211.824 230.13 211.425 230.13ZM215.997 220.419C216.17 220.419 216.322 220.48 216.452 220.601C216.59 220.714 216.66 220.896 216.66 221.147C216.66 221.39 216.59 221.572 216.452 221.693C216.322 221.814 216.17 221.875 215.997 221.875C215.806 221.875 215.646 221.814 215.516 221.693C215.386 221.572 215.321 221.39 215.321 221.147C215.321 220.896 215.386 220.714 215.516 220.601C215.646 220.48 215.806 220.419 215.997 220.419ZM216.556 223.032V230H215.412V223.032H216.556ZM222.614 222.902C223.472 222.902 224.161 223.201 224.681 223.799C225.21 224.397 225.474 225.298 225.474 226.503C225.474 227.69 225.21 228.592 224.681 229.207C224.161 229.822 223.468 230.13 222.601 230.13C222.064 230.13 221.617 230.03 221.262 229.831C220.915 229.623 220.642 229.385 220.443 229.116H220.365C220.382 229.263 220.4 229.45 220.417 229.675C220.434 229.9 220.443 230.095 220.443 230.26V233.12H219.299V223.032H220.235L220.391 223.981H220.443C220.651 223.678 220.924 223.422 221.262 223.214C221.6 223.006 222.051 222.902 222.614 222.902ZM222.406 223.864C221.695 223.864 221.193 224.063 220.898 224.462C220.612 224.861 220.46 225.467 220.443 226.282V226.503C220.443 227.361 220.582 228.024 220.859 228.492C221.145 228.951 221.669 229.181 222.432 229.181C222.857 229.181 223.203 229.064 223.472 228.83C223.749 228.596 223.953 228.28 224.083 227.881C224.222 227.474 224.291 227.01 224.291 226.49C224.291 225.693 224.135 225.056 223.823 224.579C223.52 224.102 223.047 223.864 222.406 223.864ZM228.418 220.419C228.591 220.419 228.743 220.48 228.873 220.601C229.011 220.714 229.081 220.896 229.081 221.147C229.081 221.39 229.011 221.572 228.873 221.693C228.743 221.814 228.591 221.875 228.418 221.875C228.227 221.875 228.067 221.814 227.937 221.693C227.807 221.572 227.742 221.39 227.742 221.147C227.742 220.896 227.807 220.714 227.937 220.601C228.067 220.48 228.227 220.419 228.418 220.419ZM228.977 223.032V230H227.833V223.032H228.977ZM234.411 222.902C235.009 222.902 235.52 223.032 235.945 223.292C236.378 223.552 236.708 223.92 236.933 224.397C237.167 224.865 237.284 225.415 237.284 226.048V226.737H232.513C232.53 227.526 232.73 228.128 233.111 228.544C233.501 228.951 234.043 229.155 234.736 229.155C235.178 229.155 235.568 229.116 235.906 229.038C236.253 228.951 236.608 228.83 236.972 228.674V229.675C236.617 229.831 236.266 229.944 235.919 230.013C235.572 230.091 235.161 230.13 234.684 230.13C234.025 230.13 233.44 229.996 232.929 229.727C232.426 229.458 232.032 229.06 231.746 228.531C231.469 227.994 231.33 227.339 231.33 226.568C231.33 225.805 231.456 225.151 231.707 224.605C231.967 224.059 232.327 223.639 232.786 223.344C233.254 223.049 233.796 222.902 234.411 222.902ZM234.398 223.838C233.852 223.838 233.419 224.016 233.098 224.371C232.786 224.718 232.6 225.203 232.539 225.827H236.088C236.079 225.238 235.941 224.761 235.672 224.397C235.403 224.024 234.979 223.838 234.398 223.838ZM242.948 222.902C243.78 222.902 244.408 223.106 244.833 223.513C245.257 223.912 245.47 224.562 245.47 225.463V230H244.339V225.541C244.339 224.423 243.819 223.864 242.779 223.864C242.007 223.864 241.474 224.081 241.18 224.514C240.885 224.947 240.738 225.571 240.738 226.386V230H239.594V223.032H240.517L240.686 223.981H240.751C240.976 223.617 241.288 223.348 241.687 223.175C242.085 222.993 242.506 222.902 242.948 222.902ZM250.493 229.194C250.666 229.194 250.844 229.181 251.026 229.155C251.208 229.12 251.355 229.086 251.468 229.051V229.922C251.346 229.983 251.173 230.03 250.948 230.065C250.722 230.108 250.506 230.13 250.298 230.13C249.934 230.13 249.596 230.069 249.284 229.948C248.98 229.818 248.733 229.597 248.543 229.285C248.352 228.973 248.257 228.535 248.257 227.972V223.916H247.269V223.37L248.27 222.915L248.725 221.433H249.401V223.032H251.416V223.916H249.401V227.946C249.401 228.371 249.5 228.687 249.7 228.895C249.908 229.094 250.172 229.194 250.493 229.194ZM257.936 228.076C257.936 228.752 257.684 229.263 257.182 229.61C256.679 229.957 256.003 230.13 255.154 230.13C254.668 230.13 254.248 230.091 253.893 230.013C253.546 229.935 253.238 229.827 252.97 229.688V228.648C253.247 228.787 253.581 228.917 253.971 229.038C254.369 229.151 254.772 229.207 255.18 229.207C255.76 229.207 256.181 229.116 256.441 228.934C256.701 228.743 256.831 228.492 256.831 228.18C256.831 228.007 256.783 227.851 256.688 227.712C256.592 227.573 256.419 227.435 256.168 227.296C255.925 227.157 255.574 227.001 255.115 226.828C254.664 226.655 254.278 226.481 253.958 226.308C253.637 226.135 253.39 225.927 253.217 225.684C253.043 225.441 252.957 225.129 252.957 224.748C252.957 224.159 253.195 223.704 253.672 223.383C254.157 223.062 254.79 222.902 255.57 222.902C255.994 222.902 256.389 222.945 256.753 223.032C257.125 223.11 257.472 223.223 257.793 223.37L257.403 224.28C257.108 224.159 256.8 224.055 256.48 223.968C256.159 223.881 255.83 223.838 255.492 223.838C255.024 223.838 254.664 223.916 254.413 224.072C254.17 224.219 254.049 224.423 254.049 224.683C254.049 224.874 254.105 225.038 254.218 225.177C254.33 225.307 254.517 225.437 254.777 225.567C255.045 225.688 255.401 225.836 255.843 226.009C256.285 226.174 256.662 226.343 256.974 226.516C257.286 226.689 257.524 226.902 257.689 227.153C257.853 227.396 257.936 227.703 257.936 228.076ZM105.076 242.615C104.08 242.615 103.295 242.949 102.723 243.616C102.151 244.283 101.865 245.198 101.865 246.359C101.865 247.512 102.13 248.426 102.658 249.102C103.196 249.769 103.997 250.103 105.063 250.103C105.471 250.103 105.856 250.068 106.22 249.999C106.584 249.93 106.94 249.843 107.286 249.739V250.753C106.94 250.883 106.58 250.978 106.207 251.039C105.843 251.1 105.406 251.13 104.894 251.13C103.95 251.13 103.161 250.935 102.528 250.545C101.896 250.155 101.419 249.6 101.098 248.881C100.786 248.162 100.63 247.317 100.63 246.346C100.63 245.41 100.799 244.587 101.137 243.876C101.484 243.157 101.991 242.598 102.658 242.199C103.326 241.792 104.136 241.588 105.089 241.588C106.069 241.588 106.922 241.77 107.65 242.134L107.182 243.122C106.896 242.992 106.576 242.875 106.22 242.771C105.874 242.667 105.492 242.615 105.076 242.615ZM115.516 244.032V251H114.58L114.411 250.077H114.359C114.134 250.441 113.822 250.71 113.423 250.883C113.024 251.048 112.6 251.13 112.149 251.13C111.308 251.13 110.676 250.931 110.251 250.532C109.826 250.125 109.614 249.479 109.614 248.595V244.032H110.771V248.517C110.771 249.626 111.287 250.181 112.318 250.181C113.089 250.181 113.622 249.964 113.917 249.531C114.22 249.098 114.372 248.474 114.372 247.659V244.032H115.516ZM122.801 249.076C122.801 249.752 122.549 250.263 122.047 250.61C121.544 250.957 120.868 251.13 120.019 251.13C119.533 251.13 119.113 251.091 118.758 251.013C118.411 250.935 118.103 250.827 117.835 250.688V249.648C118.112 249.787 118.446 249.917 118.836 250.038C119.234 250.151 119.637 250.207 120.045 250.207C120.625 250.207 121.046 250.116 121.306 249.934C121.566 249.743 121.696 249.492 121.696 249.18C121.696 249.007 121.648 248.851 121.553 248.712C121.457 248.573 121.284 248.435 121.033 248.296C120.79 248.157 120.439 248.001 119.98 247.828C119.529 247.655 119.143 247.481 118.823 247.308C118.502 247.135 118.255 246.927 118.082 246.684C117.908 246.441 117.822 246.129 117.822 245.748C117.822 245.159 118.06 244.704 118.537 244.383C119.022 244.062 119.655 243.902 120.435 243.902C120.859 243.902 121.254 243.945 121.618 244.032C121.99 244.11 122.337 244.223 122.658 244.37L122.268 245.28C121.973 245.159 121.665 245.055 121.345 244.968C121.024 244.881 120.695 244.838 120.357 244.838C119.889 244.838 119.529 244.916 119.278 245.072C119.035 245.219 118.914 245.423 118.914 245.683C118.914 245.874 118.97 246.038 119.083 246.177C119.195 246.307 119.382 246.437 119.642 246.567C119.91 246.688 120.266 246.836 120.708 247.009C121.15 247.174 121.527 247.343 121.839 247.516C122.151 247.689 122.389 247.902 122.554 248.153C122.718 248.396 122.801 248.703 122.801 249.076ZM127.347 250.194C127.521 250.194 127.698 250.181 127.88 250.155C128.062 250.12 128.21 250.086 128.322 250.051V250.922C128.201 250.983 128.028 251.03 127.802 251.065C127.577 251.108 127.36 251.13 127.152 251.13C126.788 251.13 126.45 251.069 126.138 250.948C125.835 250.818 125.588 250.597 125.397 250.285C125.207 249.973 125.111 249.535 125.111 248.972V244.916H124.123V244.37L125.124 243.915L125.579 242.433H126.255V244.032H128.27V244.916H126.255V248.946C126.255 249.371 126.355 249.687 126.554 249.895C126.762 250.094 127.027 250.194 127.347 250.194ZM136.311 247.503C136.311 248.656 136.017 249.548 135.427 250.181C134.847 250.814 134.058 251.13 133.061 251.13C132.446 251.13 131.896 250.991 131.41 250.714C130.934 250.428 130.557 250.016 130.279 249.479C130.002 248.933 129.863 248.274 129.863 247.503C129.863 246.35 130.154 245.462 130.734 244.838C131.315 244.214 132.104 243.902 133.1 243.902C133.733 243.902 134.288 244.045 134.764 244.331C135.25 244.608 135.627 245.016 135.895 245.553C136.173 246.082 136.311 246.732 136.311 247.503ZM131.046 247.503C131.046 248.326 131.207 248.981 131.527 249.466C131.857 249.943 132.377 250.181 133.087 250.181C133.789 250.181 134.305 249.943 134.634 249.466C134.964 248.981 135.128 248.326 135.128 247.503C135.128 246.68 134.964 246.034 134.634 245.566C134.305 245.098 133.785 244.864 133.074 244.864C132.364 244.864 131.848 245.098 131.527 245.566C131.207 246.034 131.046 246.68 131.046 247.503ZM146.304 243.902C147.093 243.902 147.682 244.106 148.072 244.513C148.462 244.912 148.657 245.562 148.657 246.463V251H147.526V246.515C147.526 245.414 147.054 244.864 146.109 244.864C145.433 244.864 144.948 245.059 144.653 245.449C144.367 245.839 144.224 246.407 144.224 247.152V251H143.093V246.515C143.093 245.414 142.616 244.864 141.663 244.864C140.961 244.864 140.476 245.081 140.207 245.514C139.938 245.947 139.804 246.571 139.804 247.386V251H138.66V244.032H139.583L139.752 244.981H139.817C140.034 244.617 140.324 244.348 140.688 244.175C141.061 243.993 141.455 243.902 141.871 243.902C142.963 243.902 143.674 244.292 144.003 245.072H144.068C144.302 244.673 144.618 244.379 145.017 244.188C145.424 243.997 145.853 243.902 146.304 243.902ZM151.93 241.419C152.103 241.419 152.255 241.48 152.385 241.601C152.524 241.714 152.593 241.896 152.593 242.147C152.593 242.39 152.524 242.572 152.385 242.693C152.255 242.814 152.103 242.875 151.93 242.875C151.739 242.875 151.579 242.814 151.449 242.693C151.319 242.572 151.254 242.39 151.254 242.147C151.254 241.896 151.319 241.714 151.449 241.601C151.579 241.48 151.739 241.419 151.93 241.419ZM152.489 244.032V251H151.345V244.032H152.489ZM159.73 251H154.634V250.246L158.378 244.916H154.855V244.032H159.639V244.89L155.947 250.116H159.73V251ZM164.514 243.915C165.363 243.915 165.991 244.101 166.399 244.474C166.806 244.847 167.01 245.44 167.01 246.255V251H166.178L165.957 250.012H165.905C165.601 250.393 165.281 250.675 164.943 250.857C164.613 251.039 164.154 251.13 163.565 251.13C162.932 251.13 162.408 250.965 161.992 250.636C161.576 250.298 161.368 249.774 161.368 249.063C161.368 248.37 161.641 247.837 162.187 247.464C162.733 247.083 163.573 246.875 164.709 246.84L165.892 246.801V246.385C165.892 245.804 165.766 245.401 165.515 245.176C165.263 244.951 164.908 244.838 164.449 244.838C164.085 244.838 163.738 244.894 163.409 245.007C163.079 245.111 162.772 245.232 162.486 245.371L162.135 244.513C162.438 244.348 162.798 244.21 163.214 244.097C163.63 243.976 164.063 243.915 164.514 243.915ZM165.879 247.594L164.852 247.633C163.985 247.668 163.383 247.806 163.045 248.049C162.715 248.292 162.551 248.634 162.551 249.076C162.551 249.466 162.668 249.752 162.902 249.934C163.144 250.116 163.452 250.207 163.825 250.207C164.414 250.207 164.904 250.047 165.294 249.726C165.684 249.397 165.879 248.894 165.879 248.218V247.594ZM170.841 241.12V243.525C170.841 243.82 170.833 244.097 170.815 244.357C170.807 244.608 170.794 244.808 170.776 244.955H170.841C171.041 244.66 171.314 244.413 171.66 244.214C172.007 244.015 172.453 243.915 172.999 243.915C173.866 243.915 174.559 244.218 175.079 244.825C175.608 245.423 175.872 246.32 175.872 247.516C175.872 248.712 175.608 249.613 175.079 250.22C174.551 250.827 173.857 251.13 172.999 251.13C172.453 251.13 172.007 251.03 171.66 250.831C171.314 250.632 171.041 250.393 170.841 250.116H170.75L170.516 251H169.697V241.12H170.841ZM172.804 244.864C172.068 244.864 171.556 245.076 171.27 245.501C170.984 245.926 170.841 246.584 170.841 247.477V247.529C170.841 248.387 170.98 249.046 171.257 249.505C171.543 249.956 172.068 250.181 172.83 250.181C173.454 250.181 173.918 249.951 174.221 249.492C174.533 249.033 174.689 248.37 174.689 247.503C174.689 245.744 174.061 244.864 172.804 244.864ZM179.375 251H178.231V241.12H179.375V251ZM184.809 243.902C185.407 243.902 185.919 244.032 186.343 244.292C186.777 244.552 187.106 244.92 187.331 245.397C187.565 245.865 187.682 246.415 187.682 247.048V247.737H182.911C182.929 248.526 183.128 249.128 183.509 249.544C183.899 249.951 184.441 250.155 185.134 250.155C185.576 250.155 185.966 250.116 186.304 250.038C186.651 249.951 187.006 249.83 187.37 249.674V250.675C187.015 250.831 186.664 250.944 186.317 251.013C185.971 251.091 185.559 251.13 185.082 251.13C184.424 251.13 183.839 250.996 183.327 250.727C182.825 250.458 182.43 250.06 182.144 249.531C181.867 248.994 181.728 248.339 181.728 247.568C181.728 246.805 181.854 246.151 182.105 245.605C182.365 245.059 182.725 244.639 183.184 244.344C183.652 244.049 184.194 243.902 184.809 243.902ZM184.796 244.838C184.25 244.838 183.817 245.016 183.496 245.371C183.184 245.718 182.998 246.203 182.937 246.827H186.486C186.478 246.238 186.339 245.761 186.07 245.397C185.802 245.024 185.377 244.838 184.796 244.838ZM196.232 250.194C196.405 250.194 196.583 250.181 196.765 250.155C196.947 250.12 197.094 250.086 197.207 250.051V250.922C197.085 250.983 196.912 251.03 196.687 251.065C196.461 251.108 196.245 251.13 196.037 251.13C195.673 251.13 195.335 251.069 195.023 250.948C194.719 250.818 194.472 250.597 194.282 250.285C194.091 249.973 193.996 249.535 193.996 248.972V244.916H193.008V244.37L194.009 243.915L194.464 242.433H195.14V244.032H197.155V244.916H195.14V248.946C195.14 249.371 195.239 249.687 195.439 249.895C195.647 250.094 195.911 250.194 196.232 250.194ZM201.829 243.902C202.427 243.902 202.938 244.032 203.363 244.292C203.796 244.552 204.125 244.92 204.351 245.397C204.585 245.865 204.702 246.415 204.702 247.048V247.737H199.931C199.948 248.526 200.147 249.128 200.529 249.544C200.919 249.951 201.46 250.155 202.154 250.155C202.596 250.155 202.986 250.116 203.324 250.038C203.67 249.951 204.026 249.83 204.39 249.674V250.675C204.034 250.831 203.683 250.944 203.337 251.013C202.99 251.091 202.578 251.13 202.102 251.13C201.443 251.13 200.858 250.996 200.347 250.727C199.844 250.458 199.45 250.06 199.164 249.531C198.886 248.994 198.748 248.339 198.748 247.568C198.748 246.805 198.873 246.151 199.125 245.605C199.385 245.059 199.744 244.639 200.204 244.344C200.672 244.049 201.213 243.902 201.829 243.902ZM201.816 244.838C201.27 244.838 200.836 245.016 200.516 245.371C200.204 245.718 200.017 246.203 199.957 246.827H203.506C203.497 246.238 203.358 245.761 203.09 245.397C202.821 245.024 202.396 244.838 201.816 244.838ZM214.655 243.902C215.444 243.902 216.033 244.106 216.423 244.513C216.813 244.912 217.008 245.562 217.008 246.463V251H215.877V246.515C215.877 245.414 215.405 244.864 214.46 244.864C213.784 244.864 213.299 245.059 213.004 245.449C212.718 245.839 212.575 246.407 212.575 247.152V251H211.444V246.515C211.444 245.414 210.968 244.864 210.014 244.864C209.312 244.864 208.827 245.081 208.558 245.514C208.29 245.947 208.155 246.571 208.155 247.386V251H207.011V244.032H207.934L208.103 244.981H208.168C208.385 244.617 208.675 244.348 209.039 244.175C209.412 243.993 209.806 243.902 210.222 243.902C211.314 243.902 212.025 244.292 212.354 245.072H212.419C212.653 244.673 212.97 244.379 213.368 244.188C213.776 243.997 214.205 243.902 214.655 243.902ZM223.011 243.902C223.869 243.902 224.558 244.201 225.078 244.799C225.607 245.397 225.871 246.298 225.871 247.503C225.871 248.69 225.607 249.592 225.078 250.207C224.558 250.822 223.865 251.13 222.998 251.13C222.461 251.13 222.015 251.03 221.659 250.831C221.313 250.623 221.04 250.385 220.84 250.116H220.762C220.78 250.263 220.797 250.45 220.814 250.675C220.832 250.9 220.84 251.095 220.84 251.26V254.12H219.696V244.032H220.632L220.788 244.981H220.84C221.048 244.678 221.321 244.422 221.659 244.214C221.997 244.006 222.448 243.902 223.011 243.902ZM222.803 244.864C222.093 244.864 221.59 245.063 221.295 245.462C221.009 245.861 220.858 246.467 220.84 247.282V247.503C220.84 248.361 220.979 249.024 221.256 249.492C221.542 249.951 222.067 250.181 222.829 250.181C223.254 250.181 223.601 250.064 223.869 249.83C224.147 249.596 224.35 249.28 224.48 248.881C224.619 248.474 224.688 248.01 224.688 247.49C224.688 246.693 224.532 246.056 224.22 245.579C223.917 245.102 223.445 244.864 222.803 244.864ZM229.374 251H228.23V241.12H229.374V251ZM234.756 243.915C235.606 243.915 236.234 244.101 236.641 244.474C237.049 244.847 237.252 245.44 237.252 246.255V251H236.42L236.199 250.012H236.147C235.844 250.393 235.523 250.675 235.185 250.857C234.856 251.039 234.397 251.13 233.807 251.13C233.175 251.13 232.65 250.965 232.234 250.636C231.818 250.298 231.61 249.774 231.61 249.063C231.61 248.37 231.883 247.837 232.429 247.464C232.975 247.083 233.816 246.875 234.951 246.84L236.134 246.801V246.385C236.134 245.804 236.009 245.401 235.757 245.176C235.506 244.951 235.151 244.838 234.691 244.838C234.327 244.838 233.981 244.894 233.651 245.007C233.322 245.111 233.014 245.232 232.728 245.371L232.377 244.513C232.681 244.348 233.04 244.21 233.456 244.097C233.872 243.976 234.306 243.915 234.756 243.915ZM236.121 247.594L235.094 247.633C234.228 247.668 233.625 247.806 233.287 248.049C232.958 248.292 232.793 248.634 232.793 249.076C232.793 249.466 232.91 249.752 233.144 249.934C233.387 250.116 233.695 250.207 234.067 250.207C234.657 250.207 235.146 250.047 235.536 249.726C235.926 249.397 236.121 248.894 236.121 248.218V247.594ZM242.267 250.194C242.441 250.194 242.618 250.181 242.8 250.155C242.982 250.12 243.13 250.086 243.242 250.051V250.922C243.121 250.983 242.948 251.03 242.722 251.065C242.497 251.108 242.28 251.13 242.072 251.13C241.708 251.13 241.37 251.069 241.058 250.948C240.755 250.818 240.508 250.597 240.317 250.285C240.127 249.973 240.031 249.535 240.031 248.972V244.916H239.043V244.37L240.044 243.915L240.499 242.433H241.175V244.032H243.19V244.916H241.175V248.946C241.175 249.371 241.275 249.687 241.474 249.895C241.682 250.094 241.947 250.194 242.267 250.194ZM247.864 243.902C248.462 243.902 248.974 244.032 249.398 244.292C249.832 244.552 250.161 244.92 250.386 245.397C250.62 245.865 250.737 246.415 250.737 247.048V247.737H245.966C245.984 248.526 246.183 249.128 246.564 249.544C246.954 249.951 247.496 250.155 248.189 250.155C248.631 250.155 249.021 250.116 249.359 250.038C249.706 249.951 250.061 249.83 250.425 249.674V250.675C250.07 250.831 249.719 250.944 249.372 251.013C249.026 251.091 248.614 251.13 248.137 251.13C247.479 251.13 246.894 250.996 246.382 250.727C245.88 250.458 245.485 250.06 245.199 249.531C244.922 248.994 244.783 248.339 244.783 247.568C244.783 246.805 244.909 246.151 245.16 245.605C245.42 245.059 245.78 244.639 246.239 244.344C246.707 244.049 247.249 243.902 247.864 243.902ZM247.851 244.838C247.305 244.838 246.872 245.016 246.551 245.371C246.239 245.718 246.053 246.203 245.992 246.827H249.541C249.533 246.238 249.394 245.761 249.125 245.397C248.857 245.024 248.432 244.838 247.851 244.838ZM257.584 249.076C257.584 249.752 257.333 250.263 256.83 250.61C256.327 250.957 255.651 251.13 254.802 251.13C254.317 251.13 253.896 251.091 253.541 251.013C253.194 250.935 252.887 250.827 252.618 250.688V249.648C252.895 249.787 253.229 249.917 253.619 250.038C254.018 250.151 254.421 250.207 254.828 250.207C255.409 250.207 255.829 250.116 256.089 249.934C256.349 249.743 256.479 249.492 256.479 249.18C256.479 249.007 256.431 248.851 256.336 248.712C256.241 248.573 256.067 248.435 255.816 248.296C255.573 248.157 255.222 248.001 254.763 247.828C254.312 247.655 253.927 247.481 253.606 247.308C253.285 247.135 253.038 246.927 252.865 246.684C252.692 246.441 252.605 246.129 252.605 245.748C252.605 245.159 252.843 244.704 253.32 244.383C253.805 244.062 254.438 243.902 255.218 243.902C255.643 243.902 256.037 243.945 256.401 244.032C256.774 244.11 257.12 244.223 257.441 244.37L257.051 245.28C256.756 245.159 256.449 245.055 256.128 244.968C255.807 244.881 255.478 244.838 255.14 244.838C254.672 244.838 254.312 244.916 254.061 245.072C253.818 245.219 253.697 245.423 253.697 245.683C253.697 245.874 253.753 246.038 253.866 246.177C253.979 246.307 254.165 246.437 254.425 246.567C254.694 246.688 255.049 246.836 255.491 247.009C255.933 247.174 256.31 247.343 256.622 247.516C256.934 247.689 257.172 247.902 257.337 248.153C257.502 248.396 257.584 248.703 257.584 249.076ZM121.565 272L120.447 269.127H116.768L115.663 272H114.48L118.107 262.679H119.16L122.774 272H121.565ZM120.096 268.087L119.056 265.279C119.03 265.21 118.987 265.084 118.926 264.902C118.865 264.72 118.805 264.534 118.744 264.343C118.692 264.144 118.649 263.992 118.614 263.888C118.553 264.157 118.484 264.421 118.406 264.681C118.328 264.932 118.263 265.132 118.211 265.279L117.158 268.087H120.096ZM127.778 264.902C128.61 264.902 129.238 265.106 129.663 265.513C130.087 265.912 130.3 266.562 130.3 267.463V272H129.169V267.541C129.169 266.423 128.649 265.864 127.609 265.864C126.837 265.864 126.304 266.081 126.01 266.514C125.715 266.947 125.568 267.571 125.568 268.386V272H124.424V265.032H125.347L125.516 265.981H125.581C125.806 265.617 126.118 265.348 126.517 265.175C126.915 264.993 127.336 264.902 127.778 264.902ZM135.634 264.915C136.484 264.915 137.112 265.101 137.519 265.474C137.927 265.847 138.13 266.44 138.13 267.255V272H137.298L137.077 271.012H137.025C136.722 271.393 136.401 271.675 136.063 271.857C135.734 272.039 135.275 272.13 134.685 272.13C134.053 272.13 133.528 271.965 133.112 271.636C132.696 271.298 132.488 270.774 132.488 270.063C132.488 269.37 132.761 268.837 133.307 268.464C133.853 268.083 134.694 267.875 135.829 267.84L137.012 267.801V267.385C137.012 266.804 136.887 266.401 136.635 266.176C136.384 265.951 136.029 265.838 135.569 265.838C135.205 265.838 134.859 265.894 134.529 266.007C134.2 266.111 133.892 266.232 133.606 266.371L133.255 265.513C133.559 265.348 133.918 265.21 134.334 265.097C134.75 264.976 135.184 264.915 135.634 264.915ZM136.999 268.594L135.972 268.633C135.106 268.668 134.503 268.806 134.165 269.049C133.836 269.292 133.671 269.634 133.671 270.076C133.671 270.466 133.788 270.752 134.022 270.934C134.265 271.116 134.573 271.207 134.945 271.207C135.535 271.207 136.024 271.047 136.414 270.726C136.804 270.397 136.999 269.894 136.999 269.218V268.594ZM141.962 272H140.818V262.12H141.962V272ZM143.614 265.032H144.836L146.344 268.997C146.474 269.344 146.591 269.677 146.695 269.998C146.799 270.31 146.877 270.609 146.929 270.895H146.981C147.033 270.678 147.115 270.397 147.228 270.05C147.34 269.695 147.457 269.339 147.579 268.984L148.996 265.032H150.231L147.228 272.962C146.985 273.621 146.669 274.145 146.279 274.535C145.897 274.925 145.369 275.12 144.693 275.12C144.485 275.12 144.303 275.107 144.147 275.081C143.991 275.064 143.856 275.042 143.744 275.016V274.106C143.839 274.123 143.952 274.141 144.082 274.158C144.22 274.175 144.363 274.184 144.511 274.184C144.909 274.184 145.23 274.071 145.473 273.846C145.724 273.621 145.919 273.322 146.058 272.949L146.422 272.026L143.614 265.032ZM154.195 271.194C154.369 271.194 154.546 271.181 154.728 271.155C154.91 271.12 155.058 271.086 155.17 271.051V271.922C155.049 271.983 154.876 272.03 154.65 272.065C154.425 272.108 154.208 272.13 154 272.13C153.636 272.13 153.298 272.069 152.986 271.948C152.683 271.818 152.436 271.597 152.245 271.285C152.055 270.973 151.959 270.535 151.959 269.972V265.916H150.971V265.37L151.972 264.915L152.427 263.433H153.103V265.032H155.118V265.916H153.103V269.946C153.103 270.371 153.203 270.687 153.402 270.895C153.61 271.094 153.875 271.194 154.195 271.194ZM157.686 262.419C157.859 262.419 158.011 262.48 158.141 262.601C158.28 262.714 158.349 262.896 158.349 263.147C158.349 263.39 158.28 263.572 158.141 263.693C158.011 263.814 157.859 263.875 157.686 263.875C157.495 263.875 157.335 263.814 157.205 263.693C157.075 263.572 157.01 263.39 157.01 263.147C157.01 262.896 157.075 262.714 157.205 262.601C157.335 262.48 157.495 262.419 157.686 262.419ZM158.245 265.032V272H157.101V265.032H158.245ZM163.783 272.13C163.168 272.13 162.618 272.004 162.132 271.753C161.656 271.502 161.279 271.112 161.001 270.583C160.733 270.054 160.598 269.378 160.598 268.555C160.598 267.697 160.741 266.999 161.027 266.462C161.313 265.925 161.699 265.53 162.184 265.279C162.678 265.028 163.237 264.902 163.861 264.902C164.217 264.902 164.559 264.941 164.888 265.019C165.218 265.088 165.486 265.175 165.694 265.279L165.343 266.228C165.135 266.15 164.893 266.076 164.615 266.007C164.338 265.938 164.078 265.903 163.835 265.903C162.466 265.903 161.781 266.783 161.781 268.542C161.781 269.383 161.946 270.028 162.275 270.479C162.613 270.921 163.112 271.142 163.77 271.142C164.152 271.142 164.485 271.103 164.771 271.025C165.066 270.947 165.335 270.852 165.577 270.739V271.753C165.343 271.874 165.083 271.965 164.797 272.026C164.52 272.095 164.182 272.13 163.783 272.13ZM172.307 270.076C172.307 270.752 172.056 271.263 171.553 271.61C171.051 271.957 170.375 272.13 169.525 272.13C169.04 272.13 168.62 272.091 168.264 272.013C167.918 271.935 167.61 271.827 167.341 271.688V270.648C167.619 270.787 167.952 270.917 168.342 271.038C168.741 271.151 169.144 271.207 169.551 271.207C170.132 271.207 170.552 271.116 170.812 270.934C171.072 270.743 171.202 270.492 171.202 270.18C171.202 270.007 171.155 269.851 171.059 269.712C170.964 269.573 170.791 269.435 170.539 269.296C170.297 269.157 169.946 269.001 169.486 268.828C169.036 268.655 168.65 268.481 168.329 268.308C168.009 268.135 167.762 267.927 167.588 267.684C167.415 267.441 167.328 267.129 167.328 266.748C167.328 266.159 167.567 265.704 168.043 265.383C168.529 265.062 169.161 264.902 169.941 264.902C170.366 264.902 170.76 264.945 171.124 265.032C171.497 265.11 171.844 265.223 172.164 265.37L171.774 266.28C171.48 266.159 171.172 266.055 170.851 265.968C170.531 265.881 170.201 265.838 169.863 265.838C169.395 265.838 169.036 265.916 168.784 266.072C168.542 266.219 168.42 266.423 168.42 266.683C168.42 266.874 168.477 267.038 168.589 267.177C168.702 267.307 168.888 267.437 169.148 267.567C169.417 267.688 169.772 267.836 170.214 268.009C170.656 268.174 171.033 268.343 171.345 268.516C171.657 268.689 171.896 268.902 172.06 269.153C172.225 269.396 172.307 269.703 172.307 270.076ZM180.909 272.13C180.043 272.13 179.349 271.831 178.829 271.233C178.309 270.626 178.049 269.725 178.049 268.529C178.049 267.333 178.309 266.432 178.829 265.825C179.358 265.21 180.056 264.902 180.922 264.902C181.46 264.902 181.897 265.002 182.235 265.201C182.582 265.4 182.864 265.643 183.08 265.929H183.158C183.15 265.816 183.132 265.652 183.106 265.435C183.089 265.21 183.08 265.032 183.08 264.902V262.12H184.224V272H183.301L183.132 271.064H183.08C182.872 271.359 182.595 271.61 182.248 271.818C181.902 272.026 181.455 272.13 180.909 272.13ZM181.091 271.181C181.828 271.181 182.344 270.982 182.638 270.583C182.942 270.176 183.093 269.565 183.093 268.75V268.542C183.093 267.675 182.95 267.012 182.664 266.553C182.378 266.085 181.85 265.851 181.078 265.851C180.463 265.851 179.999 266.098 179.687 266.592C179.384 267.077 179.232 267.732 179.232 268.555C179.232 269.387 179.384 270.033 179.687 270.492C179.999 270.951 180.467 271.181 181.091 271.181ZM189.612 264.915C190.461 264.915 191.09 265.101 191.497 265.474C191.904 265.847 192.108 266.44 192.108 267.255V272H191.276L191.055 271.012H191.003C190.7 271.393 190.379 271.675 190.041 271.857C189.712 272.039 189.252 272.13 188.663 272.13C188.03 272.13 187.506 271.965 187.09 271.636C186.674 271.298 186.466 270.774 186.466 270.063C186.466 269.37 186.739 268.837 187.285 268.464C187.831 268.083 188.672 267.875 189.807 267.84L190.99 267.801V267.385C190.99 266.804 190.864 266.401 190.613 266.176C190.362 265.951 190.006 265.838 189.547 265.838C189.183 265.838 188.836 265.894 188.507 266.007C188.178 266.111 187.87 266.232 187.584 266.371L187.233 265.513C187.536 265.348 187.896 265.21 188.312 265.097C188.728 264.976 189.161 264.915 189.612 264.915ZM190.977 268.594L189.95 268.633C189.083 268.668 188.481 268.806 188.143 269.049C187.814 269.292 187.649 269.634 187.649 270.076C187.649 270.466 187.766 270.752 188 270.934C188.243 271.116 188.55 271.207 188.923 271.207C189.512 271.207 190.002 271.047 190.392 270.726C190.782 270.397 190.977 269.894 190.977 269.218V268.594ZM199.333 270.076C199.333 270.752 199.082 271.263 198.579 271.61C198.076 271.957 197.4 272.13 196.551 272.13C196.066 272.13 195.645 272.091 195.29 272.013C194.943 271.935 194.636 271.827 194.367 271.688V270.648C194.644 270.787 194.978 270.917 195.368 271.038C195.767 271.151 196.17 271.207 196.577 271.207C197.158 271.207 197.578 271.116 197.838 270.934C198.098 270.743 198.228 270.492 198.228 270.18C198.228 270.007 198.18 269.851 198.085 269.712C197.99 269.573 197.816 269.435 197.565 269.296C197.322 269.157 196.971 269.001 196.512 268.828C196.061 268.655 195.676 268.481 195.355 268.308C195.034 268.135 194.787 267.927 194.614 267.684C194.441 267.441 194.354 267.129 194.354 266.748C194.354 266.159 194.592 265.704 195.069 265.383C195.554 265.062 196.187 264.902 196.967 264.902C197.392 264.902 197.786 264.945 198.15 265.032C198.523 265.11 198.869 265.223 199.19 265.37L198.8 266.28C198.505 266.159 198.198 266.055 197.877 265.968C197.556 265.881 197.227 265.838 196.889 265.838C196.421 265.838 196.061 265.916 195.81 266.072C195.567 266.219 195.446 266.423 195.446 266.683C195.446 266.874 195.502 267.038 195.615 267.177C195.728 267.307 195.914 267.437 196.174 267.567C196.443 267.688 196.798 267.836 197.24 268.009C197.682 268.174 198.059 268.343 198.371 268.516C198.683 268.689 198.921 268.902 199.086 269.153C199.251 269.396 199.333 269.703 199.333 270.076ZM202.696 262.12V265.019C202.696 265.366 202.675 265.691 202.631 265.994H202.709C202.935 265.639 203.238 265.37 203.619 265.188C204.009 265.006 204.43 264.915 204.88 264.915C205.73 264.915 206.367 265.119 206.791 265.526C207.216 265.925 207.428 266.57 207.428 267.463V272H206.297V267.541C206.297 266.423 205.777 265.864 204.737 265.864C203.957 265.864 203.42 266.085 203.125 266.527C202.839 266.96 202.696 267.584 202.696 268.399V272H201.552V262.12H202.696ZM211.268 262.12V264.525C211.268 264.82 211.26 265.097 211.242 265.357C211.234 265.608 211.221 265.808 211.203 265.955H211.268C211.468 265.66 211.741 265.413 212.087 265.214C212.434 265.015 212.88 264.915 213.426 264.915C214.293 264.915 214.986 265.218 215.506 265.825C216.035 266.423 216.299 267.32 216.299 268.516C216.299 269.712 216.035 270.613 215.506 271.22C214.978 271.827 214.284 272.13 213.426 272.13C212.88 272.13 212.434 272.03 212.087 271.831C211.741 271.632 211.468 271.393 211.268 271.116H211.177L210.943 272H210.124V262.12H211.268ZM213.231 265.864C212.495 265.864 211.983 266.076 211.697 266.501C211.411 266.926 211.268 267.584 211.268 268.477V268.529C211.268 269.387 211.407 270.046 211.684 270.505C211.97 270.956 212.495 271.181 213.257 271.181C213.881 271.181 214.345 270.951 214.648 270.492C214.96 270.033 215.116 269.37 215.116 268.503C215.116 266.744 214.488 265.864 213.231 265.864ZM224.716 268.503C224.716 269.656 224.421 270.548 223.832 271.181C223.251 271.814 222.463 272.13 221.466 272.13C220.851 272.13 220.3 271.991 219.815 271.714C219.338 271.428 218.961 271.016 218.684 270.479C218.407 269.933 218.268 269.274 218.268 268.503C218.268 267.35 218.558 266.462 219.139 265.838C219.72 265.214 220.508 264.902 221.505 264.902C222.138 264.902 222.692 265.045 223.169 265.331C223.654 265.608 224.031 266.016 224.3 266.553C224.577 267.082 224.716 267.732 224.716 268.503ZM219.451 268.503C219.451 269.326 219.611 269.981 219.932 270.466C220.261 270.943 220.781 271.181 221.492 271.181C222.194 271.181 222.71 270.943 223.039 270.466C223.368 269.981 223.533 269.326 223.533 268.503C223.533 267.68 223.368 267.034 223.039 266.566C222.71 266.098 222.19 265.864 221.479 265.864C220.768 265.864 220.253 266.098 219.932 266.566C219.611 267.034 219.451 267.68 219.451 268.503ZM229.704 264.915C230.553 264.915 231.181 265.101 231.589 265.474C231.996 265.847 232.2 266.44 232.2 267.255V272H231.368L231.147 271.012H231.095C230.791 271.393 230.471 271.675 230.133 271.857C229.803 272.039 229.344 272.13 228.755 272.13C228.122 272.13 227.598 271.965 227.182 271.636C226.766 271.298 226.558 270.774 226.558 270.063C226.558 269.37 226.831 268.837 227.377 268.464C227.923 268.083 228.763 267.875 229.899 267.84L231.082 267.801V267.385C231.082 266.804 230.956 266.401 230.705 266.176C230.453 265.951 230.098 265.838 229.639 265.838C229.275 265.838 228.928 265.894 228.599 266.007C228.269 266.111 227.962 266.232 227.676 266.371L227.325 265.513C227.628 265.348 227.988 265.21 228.404 265.097C228.82 264.976 229.253 264.915 229.704 264.915ZM231.069 268.594L230.042 268.633C229.175 268.668 228.573 268.806 228.235 269.049C227.905 269.292 227.741 269.634 227.741 270.076C227.741 270.466 227.858 270.752 228.092 270.934C228.334 271.116 228.642 271.207 229.015 271.207C229.604 271.207 230.094 271.047 230.484 270.726C230.874 270.397 231.069 269.894 231.069 269.218V268.594ZM238.138 264.902C238.268 264.902 238.406 264.911 238.554 264.928C238.71 264.937 238.844 264.954 238.957 264.98L238.814 266.033C238.701 266.007 238.575 265.985 238.437 265.968C238.307 265.951 238.181 265.942 238.06 265.942C237.704 265.942 237.371 266.042 237.059 266.241C236.747 266.432 236.495 266.705 236.305 267.06C236.123 267.407 236.032 267.814 236.032 268.282V272H234.888V265.032H235.824L235.954 266.306H236.006C236.231 265.925 236.521 265.595 236.877 265.318C237.232 265.041 237.652 264.902 238.138 264.902ZM243.01 272.13C242.143 272.13 241.45 271.831 240.93 271.233C240.41 270.626 240.15 269.725 240.15 268.529C240.15 267.333 240.41 266.432 240.93 265.825C241.458 265.21 242.156 264.902 243.023 264.902C243.56 264.902 243.998 265.002 244.336 265.201C244.682 265.4 244.964 265.643 245.181 265.929H245.259C245.25 265.816 245.233 265.652 245.207 265.435C245.189 265.21 245.181 265.032 245.181 264.902V262.12H246.325V272H245.402L245.233 271.064H245.181C244.973 271.359 244.695 271.61 244.349 271.818C244.002 272.026 243.556 272.13 243.01 272.13ZM243.192 271.181C243.928 271.181 244.444 270.982 244.739 270.583C245.042 270.176 245.194 269.565 245.194 268.75V268.542C245.194 267.675 245.051 267.012 244.765 266.553C244.479 266.085 243.95 265.851 243.179 265.851C242.563 265.851 242.1 266.098 241.788 266.592C241.484 267.077 241.333 267.732 241.333 268.555C241.333 269.387 241.484 270.033 241.788 270.492C242.1 270.951 242.568 271.181 243.192 271.181Z" fill="black"/>
<rect x="48" width="262" height="48" fill="#26374A"/>
<path d="M163.395 32H161.011V20.576H167.555V22.56H163.395V25.504H167.267V27.488H163.395V32ZM173.656 20.576C175.214 20.576 176.36 20.8587 177.096 21.424C177.843 21.9893 178.216 22.848 178.216 24C178.216 24.5227 178.115 24.9813 177.912 25.376C177.72 25.76 177.459 26.0907 177.128 26.368C176.808 26.6347 176.462 26.8533 176.088 27.024L179.448 32H176.76L174.04 27.616H172.744V32H170.328V20.576H173.656ZM173.48 22.56H172.744V25.648H173.528C174.328 25.648 174.899 25.5147 175.24 25.248C175.592 24.9813 175.768 24.5867 175.768 24.064C175.768 23.52 175.582 23.136 175.208 22.912C174.846 22.6773 174.27 22.56 173.48 22.56ZM188.003 32H181.427V20.576H188.003V22.56H183.843V25.072H187.715V27.056H183.843V30H188.003V32ZM197.491 32H190.915V20.576H197.491V22.56H193.331V25.072H197.203V27.056H193.331V30H197.491V32Z" fill="white"/>
<path d="M145.72 160.743C146.578 160.743 147.267 161.042 147.787 161.64C148.315 162.238 148.58 163.139 148.58 164.344C148.58 165.531 148.315 166.432 147.787 167.047C147.267 167.662 146.574 167.97 145.707 167.97C145.17 167.97 144.724 167.87 144.369 167.671C144.022 167.463 143.749 167.224 143.55 166.956H143.472C143.489 167.103 143.507 167.289 143.524 167.515C143.541 167.74 143.55 167.935 143.55 168.1V170.959H142.406V160.873H143.342L143.498 161.822H143.55C143.758 161.519 144.031 161.263 144.369 161.055C144.707 160.847 145.157 160.743 145.72 160.743ZM145.512 161.705C144.802 161.705 144.299 161.904 144.005 162.303C143.719 162.702 143.567 163.308 143.55 164.123V164.344C143.55 165.201 143.689 165.864 143.966 166.332C144.252 166.791 144.776 167.021 145.538 167.021C145.963 167.021 146.31 166.904 146.578 166.67C146.855 166.436 147.059 166.12 147.189 165.721C147.328 165.314 147.397 164.85 147.397 164.331C147.397 163.533 147.241 162.897 146.929 162.42C146.626 161.943 146.154 161.705 145.512 161.705Z" fill="#00823B"/>
<path d="M153.59 160.743C154.188 160.743 154.699 160.873 155.124 161.133C155.557 161.393 155.886 161.762 156.111 162.238C156.345 162.706 156.462 163.256 156.462 163.889V164.577H151.692C151.71 165.366 151.909 165.968 152.29 166.384C152.68 166.791 153.222 166.995 153.915 166.995C154.357 166.995 154.747 166.956 155.085 166.878C155.431 166.791 155.786 166.67 156.15 166.514V167.515C155.795 167.671 155.444 167.783 155.098 167.853C154.751 167.931 154.339 167.97 153.863 167.97C153.204 167.97 152.619 167.835 152.108 167.567C151.606 167.298 151.212 166.9 150.926 166.371C150.648 165.834 150.51 165.18 150.51 164.409C150.51 163.646 150.635 162.992 150.887 162.446C151.147 161.9 151.506 161.48 151.965 161.185C152.433 160.891 152.975 160.743 153.59 160.743ZM153.577 161.679C153.031 161.679 152.598 161.857 152.277 162.212C151.965 162.559 151.779 163.044 151.718 163.668H155.266C155.258 163.079 155.119 162.602 154.851 162.238C154.582 161.866 154.157 161.679 153.577 161.679Z" fill="#00823B"/>
<path d="M161.982 160.743C162.112 160.743 162.251 160.752 162.398 160.769C162.554 160.778 162.688 160.795 162.801 160.821L162.658 161.874C162.545 161.848 162.42 161.827 162.281 161.809C162.151 161.792 162.025 161.783 161.904 161.783C161.549 161.783 161.215 161.883 160.903 162.082C160.591 162.273 160.34 162.546 160.15 162.901C159.968 163.247 159.877 163.655 159.877 164.123V167.84H158.733V160.873H159.669L159.799 162.147H159.851C160.076 161.766 160.366 161.437 160.721 161.159C161.077 160.882 161.497 160.743 161.982 160.743Z" fill="#00823B"/>
<path d="M176.115 160.743C176.903 160.743 177.492 160.947 177.882 161.354C178.272 161.753 178.467 162.403 178.467 163.304V167.84H177.336V163.356C177.336 162.255 176.864 161.705 175.92 161.705C175.244 161.705 174.759 161.9 174.464 162.29C174.178 162.68 174.035 163.247 174.035 163.993V167.84H172.904V163.356C172.904 162.255 172.428 161.705 171.475 161.705C170.773 161.705 170.288 161.922 170.019 162.355C169.75 162.788 169.616 163.412 169.616 164.227V167.84H168.472V160.873H169.395L169.564 161.822H169.629C169.846 161.458 170.136 161.19 170.5 161.016C170.873 160.834 171.267 160.743 171.683 160.743C172.774 160.743 173.485 161.133 173.814 161.913H173.879C174.113 161.515 174.429 161.22 174.828 161.029C175.235 160.839 175.664 160.743 176.115 160.743Z" fill="#00823B"/>
<path d="M187.173 164.344C187.173 165.496 186.878 166.388 186.289 167.021C185.708 167.653 184.92 167.97 183.923 167.97C183.308 167.97 182.758 167.831 182.273 167.554C181.796 167.268 181.419 166.856 181.142 166.319C180.865 165.773 180.726 165.115 180.726 164.344C180.726 163.191 181.016 162.303 181.597 161.679C182.178 161.055 182.966 160.743 183.962 160.743C184.595 160.743 185.149 160.886 185.626 161.172C186.111 161.45 186.488 161.857 186.757 162.394C187.034 162.923 187.173 163.572 187.173 164.344ZM181.909 164.344C181.909 165.167 182.069 165.821 182.39 166.306C182.719 166.783 183.239 167.021 183.949 167.021C184.651 167.021 185.167 166.783 185.496 166.306C185.825 165.821 185.99 165.167 185.99 164.344C185.99 163.52 185.825 162.875 185.496 162.407C185.167 161.939 184.647 161.705 183.936 161.705C183.226 161.705 182.71 161.939 182.39 162.407C182.069 162.875 181.909 163.52 181.909 164.344Z" fill="#00823B"/>
<path d="M192.836 160.743C193.667 160.743 194.296 160.947 194.72 161.354C195.145 161.753 195.357 162.403 195.357 163.304V167.84H194.226V163.382C194.226 162.264 193.706 161.705 192.667 161.705C191.896 161.705 191.363 161.922 191.068 162.355C190.774 162.788 190.626 163.412 190.626 164.227V167.84H189.483V160.873H190.405L190.574 161.822H190.639C190.865 161.458 191.176 161.19 191.575 161.016C191.974 160.834 192.394 160.743 192.836 160.743Z" fill="#00823B"/>
<path d="M200.34 167.034C200.514 167.034 200.691 167.021 200.873 166.995C201.055 166.96 201.202 166.926 201.315 166.891V167.762C201.194 167.822 201.021 167.87 200.795 167.905C200.57 167.948 200.353 167.97 200.145 167.97C199.782 167.97 199.444 167.909 199.132 167.788C198.828 167.658 198.581 167.437 198.391 167.125C198.2 166.813 198.105 166.375 198.105 165.812V161.757H197.117V161.211L198.118 160.756L198.573 159.275H199.249V160.873H201.263V161.757H199.249V165.786C199.249 166.211 199.348 166.527 199.548 166.735C199.756 166.934 200.02 167.034 200.34 167.034Z" fill="#00823B"/>
<path d="M204.351 157.962V160.86C204.351 161.207 204.329 161.532 204.286 161.835H204.364C204.589 161.48 204.893 161.211 205.274 161.029C205.664 160.847 206.084 160.756 206.535 160.756C207.384 160.756 208.02 160.96 208.445 161.367C208.87 161.766 209.082 162.411 209.082 163.304V167.84H207.951V163.382C207.951 162.264 207.431 161.705 206.392 161.705C205.612 161.705 205.075 161.926 204.78 162.368C204.494 162.801 204.351 163.425 204.351 164.24V167.84H203.207V157.962H204.351Z" fill="#00823B"/>
<path d="M210.984 86.9441C210.984 88.3676 210.829 89.5868 210.519 90.6018C210.222 91.6168 209.733 92.3966 209.053 92.9412C208.384 93.4858 207.481 93.7581 206.342 93.7581C204.745 93.7581 203.575 93.1578 202.833 91.9571C202.09 90.7441 201.719 89.0731 201.719 86.9441C201.719 85.5083 201.867 84.2829 202.164 83.2679C202.461 82.2529 202.95 81.4731 203.631 80.9285C204.312 80.3839 205.215 80.1116 206.342 80.1116C207.926 80.1116 209.096 80.7119 209.851 81.9125C210.606 83.1132 210.984 84.7904 210.984 86.9441ZM204.504 86.9441C204.504 88.4542 204.634 89.593 204.894 90.3604C205.154 91.1154 205.636 91.493 206.342 91.493C207.035 91.493 207.518 91.1154 207.79 90.3604C208.062 89.6054 208.199 88.4666 208.199 86.9441C208.199 85.434 208.062 84.2953 207.79 83.5278C207.518 82.7604 207.035 82.3767 206.342 82.3767C205.636 82.3767 205.154 82.7604 204.894 83.5278C204.634 84.2953 204.504 85.434 204.504 86.9441Z" fill="#00823B"/>
<path d="M222.106 86.9441C222.106 88.3676 221.951 89.5868 221.642 90.6018C221.345 91.6168 220.856 92.3966 220.175 92.9412C219.507 93.4858 218.603 93.7581 217.464 93.7581C215.868 93.7581 214.698 93.1578 213.955 91.9571C213.213 90.7441 212.841 89.0731 212.841 86.9441C212.841 85.5083 212.99 84.2829 213.287 83.2679C213.584 82.2529 214.073 81.4731 214.754 80.9285C215.434 80.3839 216.338 80.1116 217.464 80.1116C219.049 80.1116 220.218 80.7119 220.973 81.9125C221.728 83.1132 222.106 84.7904 222.106 86.9441ZM215.626 86.9441C215.626 88.4542 215.756 89.593 216.016 90.3604C216.276 91.1154 216.759 91.493 217.464 91.493C218.157 91.493 218.64 91.1154 218.912 90.3604C219.185 89.6054 219.321 88.4666 219.321 86.9441C219.321 85.434 219.185 84.2953 218.912 83.5278C218.64 82.7604 218.157 82.3767 217.464 82.3767C216.759 82.3767 216.276 82.7604 216.016 83.5278C215.756 84.2953 215.626 85.434 215.626 86.9441Z" fill="#00823B"/>
<path d="M138.899 121.571V119.752C138.094 119.727 137.377 119.653 136.745 119.529C136.114 119.393 135.538 119.207 135.019 118.972V116.577C135.526 116.824 136.139 117.053 136.857 117.264C137.575 117.462 138.255 117.58 138.899 117.617V114.813C137.946 114.442 137.178 114.083 136.597 113.736C136.027 113.377 135.619 112.981 135.371 112.548C135.124 112.115 135 111.595 135 110.988C135 110.06 135.359 109.324 136.077 108.779C136.807 108.222 137.748 107.894 138.899 107.795V106.402H140.143V107.758C141.517 107.807 142.767 108.086 143.893 108.593L143.039 110.71C142.544 110.499 142.043 110.338 141.535 110.227C141.04 110.116 140.576 110.041 140.143 110.004V112.678C140.811 112.925 141.449 113.198 142.055 113.495C142.662 113.78 143.151 114.145 143.522 114.59C143.906 115.036 144.098 115.624 144.098 116.354C144.098 117.258 143.77 118.013 143.114 118.619C142.458 119.226 141.467 119.591 140.143 119.715V121.571H138.899ZM138.899 112.177V110.041C138.119 110.153 137.729 110.468 137.729 110.988C137.729 111.248 137.822 111.465 138.008 111.638C138.193 111.811 138.491 111.991 138.899 112.177ZM140.143 117.561C140.96 117.412 141.368 117.053 141.368 116.484C141.368 116.237 141.263 116.026 141.053 115.853C140.855 115.667 140.551 115.481 140.143 115.296V117.561Z" fill="#00823B"/>
<path d="M200.784 113.949C200.784 119.798 200.149 124.888 198.881 129.221C197.643 133.522 195.91 137.081 193.682 139.896C191.485 142.712 188.87 144.817 185.838 146.209C182.836 147.571 179.587 148.251 176.09 148.251C172.593 148.251 169.344 147.571 166.343 146.209C163.372 144.817 160.788 142.712 158.591 139.896C156.394 137.081 154.676 133.522 153.439 129.221C152.201 124.888 151.582 119.798 151.582 113.949C151.582 108.07 152.201 102.98 153.439 98.6783C154.676 94.3771 156.394 90.8184 158.591 88.0025C160.788 85.1865 163.372 83.0978 166.343 81.7362C169.344 80.3437 172.593 79.6475 176.09 79.6475C179.587 79.6475 182.836 80.3437 185.838 81.7362C188.87 83.0978 191.485 85.1865 193.682 88.0025C195.91 90.8184 197.643 94.3771 198.881 98.6783C200.149 102.98 200.784 108.07 200.784 113.949ZM188.948 113.949C188.948 109.091 188.592 105.068 187.88 101.881C187.168 98.6938 186.209 96.1564 185.002 94.2688C183.826 92.3811 182.465 91.066 180.917 90.3233C179.37 89.5497 177.761 89.1629 176.09 89.1629C174.45 89.1629 172.856 89.5497 171.309 90.3233C169.793 91.066 168.447 92.3811 167.271 94.2688C166.095 96.1564 165.151 98.6938 164.439 101.881C163.759 105.068 163.418 109.091 163.418 113.949C163.418 118.808 163.759 122.831 164.439 126.018C165.151 129.205 166.095 131.743 167.271 133.63C168.447 135.518 169.793 136.848 171.309 137.622C172.856 138.365 174.45 138.736 176.09 138.736C177.761 138.736 179.37 138.365 180.917 137.622C182.465 136.848 183.826 135.518 185.002 133.63C186.209 131.743 187.168 129.205 187.88 126.018C188.592 122.831 188.948 118.808 188.948 113.949Z" fill="#00823B"/>
<rect x="48.5" y="0.5" width="261" height="295" rx="14.5" stroke="#BBBDBF"/>
</g>
<defs>
<filter id="filter0_d" x="48" y="0" width="270" height="304" filterUnits="userSpaceOnUse" color-interpolation-filters="sRGB">
<feFlood flood-opacity="0" result="BackgroundImageFix"/>
<feColorMatrix in="SourceAlpha" type="matrix" values="0 0 0 0 0 0 0 0 0 0 0 0 0 0 0 0 0 0 127 0"/>
<feOffset dx="4" dy="4"/>
<feGaussianBlur stdDeviation="2"/>
<feColorMatrix type="matrix" values="0 0 0 0 0 0 0 0 0 0 0 0 0 0 0 0 0 0 0.1 0"/>
<feBlend mode="normal" in2="BackgroundImageFix" result="effect1_dropShadow"/>
<feBlend mode="normal" in="SourceGraphic" in2="effect1_dropShadow" result="shape"/>
</filter>
<clipPath id="clip0">
</clipPath>
<clipPath id="clip1">
</clipPath>
</defs>
</svg>
