<svg width="427" height="288" viewBox="0 0 427 288" fill="none" xmlns="http://www.w3.org/2000/svg">
<g filter="url(#filter0_d)">
<rect width="419" height="280" rx="5" fill="#26374A"/>
<path d="M3 43H416V274C416 275.657 414.657 277 413 277H5.99999C4.34314 277 3 275.657 3 274V43Z" fill="white"/>
<rect x="32" y="150" width="283" height="10" rx="4" fill="#BBBDBF"/>
<rect x="32" y="179" width="283" height="10" rx="4" fill="#BBBDBF"/>
<path d="M95.5721 111.93H79.3887V79.3335H95.5721V111.93ZM63.3667 81.8286C63.3667 81.8286 61.4063 85.8217 61.0796 86.1541C60.7529 86.6548 60.5874 86.6548 60.0994 86.4865C59.6073 86.1541 57.9736 85.321 57.9736 85.321C57.9736 85.321 59.446 91.805 59.446 92.3057C59.6114 92.8064 59.1192 93.3029 58.4658 92.8064C58.3003 92.6381 55.5252 89.4781 55.5252 89.4781C55.5252 89.4781 54.8718 90.9761 54.7063 91.3085C54.5409 91.6409 54.3796 91.8092 54.0529 91.6409C53.5607 91.4768 50.9469 90.9761 50.9469 90.9761C50.9469 90.9761 51.9271 94.136 52.0925 94.6367C52.258 94.9691 52.4193 95.3015 51.7658 95.6339L50.7856 95.9663C50.7856 95.9663 56.1787 100.788 56.3441 100.957C56.6708 101.289 56.8363 101.289 56.6708 102.122C56.3441 102.955 56.1787 103.952 56.1787 103.952C56.1787 103.952 61.245 102.787 61.7372 102.787C62.2293 102.787 62.7174 102.955 62.7174 103.452C62.7174 103.952 62.3906 109.603 62.3906 109.603H64.0243C64.0243 109.603 63.6976 104.117 63.6976 103.452C63.6976 102.951 64.1897 102.787 64.6777 102.787C65.1699 102.955 70.2362 103.952 70.2362 103.952C70.2362 103.952 69.9095 102.787 69.7441 102.122C69.4174 101.289 69.7441 101.125 70.0708 100.957C70.2362 100.788 75.6293 95.9663 75.6293 95.9663L74.6491 95.6339C74.157 95.3015 74.3224 94.9691 74.3224 94.6367C74.4837 94.3043 75.468 90.9761 75.468 90.9761C75.468 90.9761 72.8542 91.4768 72.362 91.6409C72.0353 91.8092 71.8699 91.4768 71.7086 91.3085C71.5431 90.9761 70.8897 89.4781 70.8897 89.4781C70.8897 89.4781 68.1104 92.8064 67.9491 92.8064C67.457 93.1388 66.8035 92.8064 66.969 92.3057C66.969 91.805 68.4413 85.321 68.4413 85.321C68.4413 85.321 66.8077 86.3182 66.3155 86.4865C65.9805 86.8189 65.6538 86.8189 65.3271 86.1541C65.3271 85.6534 63.3667 81.8286 63.3667 81.8286ZM47.1833 111.93V79.3335H31V111.93H47.1833Z" fill="#EB3323"/>
<path d="M135.616 92.637H134.144L133.817 91.1391C132.51 92.637 131.53 92.9694 129.892 92.9694C125.967 92.9694 123.68 89.8095 123.68 85.9847C123.519 82.1599 125.81 79 129.731 79C132.675 79 134.962 80.4979 135.289 83.4896H133.002C132.837 81.6592 131.203 80.8303 129.569 80.8303C126.79 80.8303 125.645 83.3255 125.645 85.9847C125.645 88.4798 126.79 91.1391 129.569 91.1391C131.856 91.1391 133.168 89.8095 133.329 87.4784H129.896V85.6481H135.616V92.637ZM137.415 87.815C137.415 84.8234 139.214 82.6607 142.155 82.6607C145.095 82.6607 146.894 84.8234 146.894 87.815C146.894 90.8109 145.095 92.9694 142.155 92.9694C139.214 92.9694 137.415 90.8067 137.415 87.815ZM144.773 87.815C144.773 86.153 143.954 84.491 141.993 84.491C140.033 84.491 139.214 86.153 139.214 87.815C139.214 89.477 140.033 91.3074 141.993 91.3074C143.954 91.3074 144.773 89.477 144.773 87.815ZM147.713 82.9931H150L152.453 90.4785L154.74 82.9931H156.866L153.594 92.637H151.307L147.713 82.9931ZM159.81 88.3115C159.81 89.8095 160.629 91.1391 162.424 91.1391C163.57 91.1391 164.384 90.6384 164.711 89.477H166.672C166.179 91.6398 164.384 92.8053 162.42 92.8053C159.479 92.8053 157.842 90.6426 157.842 87.6509C157.842 84.8234 159.641 82.4966 162.42 82.4966C165.365 82.4966 167.325 85.3241 166.833 88.1516H159.802V88.3115H159.81ZM164.715 86.9819C164.715 85.6523 163.735 84.4868 162.263 84.4868C160.79 84.4868 159.81 85.6523 159.81 86.9819H164.715ZM168.475 82.9931H170.435V84.8234C170.601 83.8262 171.907 82.6607 173.214 82.6607C173.707 82.6607 173.868 82.6607 174.033 82.6607V84.6551C173.707 84.6551 173.38 84.491 173.053 84.491C171.581 84.491 170.439 85.6565 170.439 87.815V92.4729H168.313V82.9931H168.475ZM175.34 82.9931H177.301V84.491C177.954 83.4938 178.934 82.829 180.241 82.829C182.367 82.829 183.674 83.9945 183.674 86.1572V92.8095H181.548V86.6495C181.548 85.1516 180.895 84.4868 179.749 84.4868C178.277 84.4868 177.462 85.6523 177.462 86.9819V92.637H175.336V82.9931H175.34ZM185.8 82.9931H187.76V84.3227C188.413 83.3255 189.232 82.6607 190.7 82.6607C191.846 82.6607 192.988 83.1614 193.314 84.3227C193.968 83.3255 194.948 82.6607 196.255 82.6607C198.215 82.6607 199.361 83.4938 199.361 85.9847V92.637H197.235V86.9819C197.235 85.484 197.07 84.3227 195.436 84.3227C193.964 84.3227 193.476 85.3199 193.476 86.9819V92.637H191.35V86.4854C191.35 85.1558 191.023 84.491 189.716 84.491C188.571 84.491 187.59 85.3241 187.59 86.9861V92.8053H185.465V82.9931H185.8ZM203.455 88.3115C203.455 89.8095 204.274 91.1391 206.069 91.1391C207.215 91.1391 208.029 90.6384 208.356 89.477H210.317C209.824 91.6398 208.029 92.8053 206.065 92.8053C203.124 92.8053 201.487 90.6426 201.487 87.6509C201.487 84.8234 203.286 82.4966 206.065 82.4966C209.01 82.4966 210.97 85.3241 210.478 88.1516H203.447V88.3115H203.455ZM208.36 86.9819C208.36 85.6523 207.38 84.4868 205.908 84.4868C204.435 84.4868 203.455 85.6523 203.455 86.9819H208.36ZM212.12 82.9931H214.08V84.491C214.734 83.4938 215.714 82.829 217.021 82.829C219.146 82.829 220.453 83.9945 220.453 86.1572V92.8095H218.328V86.6495C218.328 85.1516 217.674 84.4868 216.528 84.4868C215.056 84.4868 214.241 85.6523 214.241 86.9819V92.637H212.116V82.9931H212.12ZM221.764 82.9931H223.398V80.1655H225.524V82.9931H227.484V84.6551H225.524V89.8095C225.524 90.6426 225.524 91.1391 226.504 91.1391C226.831 91.1391 227.157 91.1391 227.323 91.1391V92.8011C226.831 92.8011 226.343 92.9652 226.016 92.9652C223.89 92.9652 223.402 92.1321 223.402 90.4701V84.6551H221.769V82.9931H221.764ZM123.357 107.107C123.357 104.115 125.156 101.953 128.097 101.953C131.203 101.953 132.837 104.115 132.837 107.107C132.837 110.103 131.038 112.261 128.097 112.261C125.156 112.261 123.357 110.099 123.357 107.107ZM130.876 107.107C130.876 105.445 130.057 103.779 128.097 103.779C126.298 103.779 125.318 105.441 125.318 107.107C125.318 108.769 126.137 110.599 128.097 110.599C130.057 110.599 130.876 108.769 130.876 107.107ZM133.817 102.285H135.45V101.452C135.45 98.9569 136.757 98.6245 138.064 98.6245C138.718 98.6245 139.21 98.6245 139.537 98.7886V100.451C139.21 100.451 139.044 100.282 138.556 100.282C138.064 100.282 137.576 100.451 137.576 101.28V102.277H139.375V103.939H137.576V112.089H135.45V103.947H133.817V102.285ZM154.744 102.782C154.417 101.284 153.437 100.122 151.473 100.122C148.693 100.122 147.548 102.618 147.548 105.277C147.548 107.772 148.693 110.431 151.473 110.431C153.433 110.431 154.578 108.933 154.744 106.939H157.031C156.866 110.099 154.744 112.261 151.473 112.261C147.548 112.261 145.261 109.102 145.261 105.277C145.261 101.452 147.548 98.2921 151.473 98.2921C154.413 98.2921 156.704 99.9541 157.031 102.782H154.744ZM166.841 109.766C166.841 110.267 167.007 110.431 167.333 110.431C167.499 110.431 167.66 110.431 167.825 110.431V111.929C167.499 112.093 166.845 112.093 166.519 112.093C165.7 112.093 165.046 111.761 164.885 110.928C164.066 111.761 162.759 112.093 161.618 112.093C159.984 112.093 158.346 111.096 158.346 109.266C158.346 106.77 160.307 106.438 161.944 106.274C163.417 105.942 164.724 106.106 164.724 104.944C164.724 103.779 163.578 103.615 162.763 103.615C161.618 103.615 160.803 104.115 160.637 105.113H158.512C158.677 102.618 160.799 101.953 162.763 101.953C164.562 101.953 166.523 102.786 166.523 104.78V109.771H166.841V109.766ZM164.877 107.107C164.223 107.608 163.243 107.44 162.263 107.608C161.283 107.776 160.629 108.109 160.629 109.27C160.629 110.267 161.775 110.435 162.59 110.435C163.57 110.435 164.877 109.935 164.877 108.605V107.107ZM169.128 102.285H171.089V103.783C171.742 102.786 172.722 102.121 174.033 102.121C176.159 102.121 177.466 103.287 177.466 105.449V112.102H175.34V105.942C175.34 104.444 174.687 103.779 173.541 103.779C172.069 103.779 171.254 104.944 171.254 106.274V111.929H169.128V102.285ZM187.437 109.766C187.437 110.267 187.603 110.431 187.93 110.431C188.091 110.431 188.256 110.431 188.422 110.431V111.929C188.095 112.093 187.441 112.093 187.115 112.093C186.296 112.093 185.642 111.761 185.481 110.928C184.662 111.761 183.355 112.093 182.21 112.093C180.576 112.093 178.938 111.096 178.938 109.266C178.938 106.77 180.899 106.438 182.536 106.274C184.009 105.942 185.316 106.106 185.316 104.944C185.316 103.779 184.17 103.615 183.355 103.615C182.21 103.615 181.395 104.115 181.23 105.113H179.104C179.265 102.618 181.391 101.953 183.355 101.953C185.154 101.953 187.115 102.786 187.115 104.78V109.771H187.437V109.766ZM185.312 107.107C184.658 107.608 183.678 107.44 182.698 107.608C181.718 107.776 181.064 108.109 181.064 109.27C181.064 110.267 182.21 110.435 183.024 110.435C184.005 110.435 185.312 109.935 185.312 108.605V107.107ZM198.55 111.929H196.59V110.599C196.098 111.765 194.791 112.097 193.645 112.097C190.705 112.097 189.232 109.771 189.232 106.943C189.232 103.451 191.358 101.953 193.318 101.953C194.464 101.953 195.771 102.453 196.424 103.451V98.4604H198.55V111.929ZM193.976 110.599C195.775 110.599 196.59 108.937 196.59 107.107C196.59 104.944 195.61 103.779 193.976 103.779C192.016 103.779 191.362 105.609 191.362 107.271C191.358 108.937 192.177 110.599 193.976 110.599ZM208.852 109.766C208.852 110.267 209.018 110.431 209.345 110.431C209.51 110.431 209.671 110.431 209.837 110.431V111.929C209.51 112.093 208.857 112.093 208.53 112.093C207.711 112.093 207.058 111.761 206.896 110.928C206.077 111.761 204.77 112.093 203.625 112.093C201.991 112.093 200.358 111.096 200.358 109.266C200.358 106.77 202.318 106.438 203.956 106.274C205.428 105.942 206.735 106.106 206.735 104.944C206.735 103.779 205.589 103.615 204.775 103.615C203.629 103.615 202.814 104.115 202.649 105.113H200.523C200.688 102.618 202.81 101.953 204.775 101.953C206.574 101.953 208.534 102.786 208.534 104.78V109.771H208.852V109.766ZM206.727 107.107C206.073 107.608 205.093 107.44 204.113 107.608C203.133 107.776 202.479 108.109 202.479 109.27C202.479 110.267 203.625 110.435 204.44 110.435C205.42 110.435 206.727 109.935 206.727 108.605V107.107ZM267.862 92.637H266.39L266.063 91.1391C264.756 92.637 263.776 92.9694 262.138 92.9694C258.213 92.9694 255.926 89.8095 255.926 85.9847C255.926 82.1599 258.213 79 262.138 79C265.079 79 267.37 80.4979 267.696 83.4896H265.409C265.244 81.6592 263.61 80.8303 261.977 80.8303C259.197 80.8303 258.052 83.3255 258.052 85.9847C258.052 88.4798 259.197 91.1391 261.977 91.1391C264.264 91.1391 265.575 89.8095 265.736 87.4784H262.303V85.6481H267.862V92.637ZM269.822 87.815C269.822 84.8234 271.621 82.6607 274.562 82.6607C277.502 82.6607 279.301 84.8234 279.301 87.815C279.301 90.8109 277.502 92.9694 274.562 92.9694C271.621 92.9694 269.822 90.8067 269.822 87.815ZM277.18 87.815C277.18 86.153 276.361 84.491 274.401 84.491C272.602 84.491 271.621 86.153 271.621 87.815C271.621 89.477 272.44 91.3074 274.401 91.3074C276.361 91.3074 277.18 89.477 277.18 87.815ZM289.438 92.637H287.313V91.3074C286.82 92.3046 285.679 92.9694 284.533 92.9694C282.081 92.9694 280.935 91.6398 280.935 89.1446V82.9931H283.061V88.9805C283.061 90.6426 283.714 91.3074 284.86 91.3074C286.659 91.3074 287.147 90.1419 287.147 88.6481V82.9931H289.273L289.438 92.637ZM290.749 82.9931H293.036L295.489 90.4785L297.776 82.9931H299.902L296.469 92.637H294.182L290.749 82.9931ZM302.52 88.3115C302.52 89.8095 303.339 91.1391 305.134 91.1391C306.279 91.1391 307.094 90.6384 307.421 89.477H309.381C308.889 91.6398 307.094 92.8053 305.13 92.8053C302.189 92.8053 300.551 90.6426 300.551 87.6509C300.551 84.8234 302.35 82.4966 305.13 82.4966C308.074 82.4966 310.035 85.3241 309.542 88.1516H302.512V88.3115H302.52ZM307.421 86.9819C307.421 85.6523 306.441 84.4868 304.968 84.4868C303.496 84.4868 302.516 85.6523 302.516 86.9819H307.421ZM311.18 82.9931H313.141V84.8234C313.302 83.8262 314.613 82.6607 315.92 82.6607C316.412 82.6607 316.573 82.6607 316.739 82.6607V84.6551C316.412 84.6551 316.085 84.491 315.758 84.491C314.286 84.491 313.145 85.6565 313.145 87.815V92.4729H311.019L311.18 82.9931ZM317.719 82.9931H319.679V84.491C320.333 83.4938 321.313 82.829 322.624 82.829C324.75 82.829 326.057 83.9945 326.057 86.1572V92.8095H323.931V86.6495C323.931 85.1516 323.277 84.4868 322.132 84.4868C320.659 84.4868 319.845 85.6523 319.845 86.9819V92.637H317.719V82.9931ZM329.981 88.3115C329.981 89.8095 330.8 91.1391 332.595 91.1391C333.741 91.1391 334.556 90.6384 334.882 89.477H336.843C336.351 91.6398 334.556 92.8053 332.591 92.8053C329.646 92.8053 328.013 90.6426 328.013 87.6509C328.013 84.8234 329.812 82.4966 332.591 82.4966C335.532 82.4966 337.496 85.3241 337.004 88.1516H329.973V88.3115H329.981ZM334.887 86.9819C334.887 85.6523 333.906 84.4868 332.434 84.4868C330.962 84.4868 329.981 85.6523 329.981 86.9819H334.887ZM338.48 82.9931H340.441V84.3227C341.094 83.3255 341.913 82.6607 343.381 82.6607C344.527 82.6607 345.669 83.1614 345.995 84.3227C346.649 83.3255 347.629 82.6607 348.94 82.6607C350.9 82.6607 352.046 83.4938 352.046 85.9847V92.637H349.92V86.9819C349.92 85.484 349.755 84.3227 348.121 84.3227C346.649 84.3227 346.161 85.3199 346.161 86.9819V92.637H344.035V86.4854C344.035 85.1558 343.708 84.491 342.401 84.491C341.256 84.491 340.275 85.3241 340.275 86.9861V92.8053H338.15V82.9931H338.48ZM356.136 88.3115C356.136 89.8095 356.955 91.1391 358.75 91.1391C359.896 91.1391 360.71 90.6384 361.037 89.477H362.997C362.505 91.6398 360.71 92.8053 358.746 92.8053C355.805 92.8053 354.168 90.6426 354.168 87.6509C354.168 84.8234 355.967 82.4966 358.746 82.4966C361.686 82.4966 363.651 85.3241 363.159 88.1516H356.128V88.3115H356.136ZM361.041 86.9819C361.041 85.6523 360.061 84.4868 358.589 84.4868C357.116 84.4868 356.136 85.6523 356.136 86.9819H361.041ZM364.801 82.9931H366.761V84.491C367.414 83.4938 368.395 82.829 369.706 82.829C371.832 82.829 373.138 83.9945 373.138 86.1572V92.8095H371.013V86.6495C371.013 85.1516 370.359 84.4868 369.214 84.4868C367.741 84.4868 366.926 85.6523 366.926 86.9819V92.637H364.801V82.9931ZM374.28 82.9931H375.914V80.1655H378.039V82.9931H380V84.6551H378.039V89.8095C378.039 90.6426 378.039 91.1391 379.02 91.1391C379.346 91.1391 379.673 91.1391 379.838 91.1391V92.8011C379.346 92.8011 378.858 92.9652 378.531 92.9652C376.406 92.9652 375.918 92.1321 375.918 90.4701V84.6551H374.284V82.9931H374.28ZM265.083 111.929H263.122V110.599C262.63 111.765 261.323 112.097 260.182 112.097C257.241 112.097 255.769 109.771 255.769 106.943C255.769 103.451 257.729 101.953 259.855 101.953C261.001 101.953 262.308 102.453 262.961 103.451V98.4604H265.083V111.929ZM260.343 110.599C262.142 110.599 262.957 108.937 262.957 107.107C262.957 104.944 261.977 103.779 260.343 103.779C258.383 103.779 257.729 105.609 257.729 107.271C257.729 108.937 258.544 110.599 260.343 110.599ZM275.708 111.929H273.582V110.599C273.09 111.597 271.948 112.261 270.802 112.261C268.35 112.261 267.204 110.932 267.204 108.437V102.285H269.33V108.273C269.33 109.935 269.984 110.599 271.129 110.599C272.928 110.599 273.416 109.434 273.416 107.94V102.285H275.542V111.929H275.708ZM292.218 102.782C291.891 101.284 290.911 100.122 288.946 100.122C286.167 100.122 285.021 102.618 285.021 105.277C285.021 107.772 286.167 110.431 288.946 110.431C291.072 110.431 292.052 108.933 292.218 106.939H294.505C294.343 110.099 292.052 112.426 288.946 112.426C285.021 112.426 282.734 109.266 282.734 105.441C282.734 101.616 285.021 98.4562 288.946 98.4562C291.891 98.4562 294.178 100.118 294.505 102.946H292.218V102.782ZM304.153 109.766C304.153 110.267 304.319 110.431 304.646 110.431C304.811 110.431 304.972 110.431 305.138 110.431V111.929C304.811 112.093 304.158 112.093 303.831 112.093C303.012 112.093 302.359 111.761 302.197 110.928C301.378 111.761 300.071 112.093 298.926 112.093C297.292 112.093 295.659 111.096 295.659 109.266C295.659 106.77 297.619 106.438 299.257 106.274C300.729 105.942 302.036 106.106 302.036 104.944C302.036 103.779 300.89 103.615 300.076 103.615C298.93 103.615 298.115 104.115 297.95 105.113H295.824C295.989 102.618 298.111 101.953 300.076 101.953C301.875 101.953 303.835 102.786 303.835 104.78V109.771H304.153V109.766ZM302.028 107.107C301.374 107.608 300.394 107.44 299.414 107.608C298.434 107.776 297.78 108.109 297.78 109.27C297.78 110.267 298.926 110.435 299.741 110.435C300.721 110.435 302.028 109.935 302.028 108.605V107.107ZM306.606 102.285H308.566V103.783C309.22 102.786 310.2 102.121 311.507 102.121C313.633 102.121 314.94 103.287 314.94 105.449V112.102H312.814V105.942C312.814 104.444 312.16 103.779 311.015 103.779C309.542 103.779 308.728 104.944 308.728 106.274V111.929H306.602V102.285H306.606ZM324.75 109.766C324.75 110.267 324.915 110.431 325.242 110.431C325.407 110.431 325.569 110.431 325.734 110.431V111.929C325.407 112.093 324.754 112.093 324.427 112.093C323.608 112.093 322.955 111.761 322.793 110.928C321.975 111.761 320.668 112.093 319.526 112.093C317.893 112.093 316.255 111.096 316.255 109.266C316.255 106.77 318.215 106.438 319.853 106.274C321.325 105.942 322.632 106.106 322.632 104.944C322.632 103.779 321.487 103.615 320.672 103.615C319.526 103.615 318.711 104.115 318.546 105.113H316.42C316.582 102.618 318.707 101.953 320.672 101.953C322.471 101.953 324.431 102.786 324.431 104.78V109.771H324.75V109.766ZM322.624 107.107C321.97 107.608 320.99 107.44 320.01 107.608C319.03 107.776 318.376 108.109 318.376 109.27C318.376 110.267 319.522 110.435 320.337 110.435C321.317 110.435 322.624 109.935 322.624 108.605V107.107ZM336.028 111.929H334.068V110.599C333.575 111.765 332.269 112.097 331.127 112.097C328.187 112.097 326.714 109.771 326.714 106.943C326.714 103.451 328.84 101.953 330.8 101.953C331.946 101.953 333.253 102.453 333.906 103.451V98.4604H336.032V111.929H336.028ZM331.288 110.599C333.087 110.599 333.902 108.937 333.902 107.107C333.902 104.944 332.922 103.779 331.288 103.779C329.328 103.779 328.675 105.609 328.675 107.271C328.675 108.937 329.489 110.599 331.288 110.599ZM346.165 109.766C346.165 110.267 346.33 110.431 346.657 110.431C346.822 110.431 346.984 110.431 347.149 110.431V111.929C346.822 112.093 346.169 112.093 345.842 112.093C345.023 112.093 344.37 111.761 344.209 110.928C343.39 111.761 342.083 112.093 340.937 112.093C339.304 112.093 337.67 111.096 337.67 109.266C337.67 106.77 339.63 106.438 341.268 106.274C342.74 105.942 344.047 106.106 344.047 104.944C344.047 103.779 342.902 103.615 342.087 103.615C340.941 103.615 340.127 104.115 339.961 105.113H337.835C338.001 102.618 340.122 101.953 342.087 101.953C343.886 101.953 345.846 102.786 345.846 104.78V109.771H346.165V109.766ZM344.039 107.107C343.386 107.608 342.405 107.44 341.425 107.608C340.445 107.776 339.792 108.109 339.792 109.27C339.792 110.267 340.937 110.435 341.752 110.435C342.732 110.435 344.039 109.935 344.039 108.605V107.107Z" fill="black"/>
<path d="M136.7 228.32H111.122C101.881 228.32 96.4309 230.241 92.8168 231.51C88.6166 233.002 88.2715 233.112 84.3383 229.537C83.1337 228.43 82.0006 226.946 80.8024 225.363C77.859 221.495 74.1733 216.637 67.8177 217.021C58.7336 217.529 57.9327 226.978 57.4573 232.624C57.3792 233.575 57.288 234.636 57.1643 235.678C56.5457 233.744 55.9466 231.634 55.4907 230.019C54.7484 227.375 53.98 224.653 53.153 222.361C51.4338 217.627 48.4319 216.982 46.6346 217.021C44.8568 217.061 40.1292 217.158 35.2193 232.728C34.4378 235.196 35.8118 237.827 38.2798 238.615C40.7609 239.39 43.3917 238.016 44.1731 235.548C44.681 233.933 45.3062 232.253 45.9378 230.742C46.1071 231.341 46.2829 231.953 46.4522 232.559C48.8682 241.141 50.7761 247.907 55.9596 249.145C56.3568 249.236 56.8517 249.307 57.4248 249.307C58.9095 249.307 60.8891 248.786 62.8101 246.677C65.9814 243.206 66.4242 238.003 66.8084 233.425C66.9907 231.237 67.3358 227.154 68.3322 226.392C69.6866 226.34 71.1518 228.183 73.3268 231.048C74.6617 232.806 76.179 234.799 78.0153 236.466C85.5561 243.336 89.8148 242.522 95.936 240.36C99.2961 239.175 103.483 237.703 111.115 237.703H136.694C139.286 237.703 141.389 235.593 141.389 233.008C141.395 230.423 139.299 228.32 136.7 228.32Z" fill="#26374A"/>
</g>
<defs>
<filter id="filter0_d" x="0" y="0" width="427" height="288" filterUnits="userSpaceOnUse" color-interpolation-filters="sRGB">
<feFlood flood-opacity="0" result="BackgroundImageFix"/>
<feColorMatrix in="SourceAlpha" type="matrix" values="0 0 0 0 0 0 0 0 0 0 0 0 0 0 0 0 0 0 127 0"/>
<feOffset dx="4" dy="4"/>
<feGaussianBlur stdDeviation="2"/>
<feColorMatrix type="matrix" values="0 0 0 0 0 0 0 0 0 0 0 0 0 0 0 0 0 0 0.1 0"/>
<feBlend mode="normal" in2="BackgroundImageFix" result="effect1_dropShadow"/>
<feBlend mode="normal" in="SourceGraphic" in2="effect1_dropShadow" result="shape"/>
</filter>
</defs>
</svg>
